999
dxfrw 0.6.3
  0
SECTION
  2
HEADER
  9
$ACADVER
  1
AC1021
  9
$DWGCODEPAGE
  3
ANSI_1252
  9
$INSBASE
 10
0
 20
0
 30
0
  9
$EXTMIN
 10
11.875
 20
-4.25
 30
0
  9
$EXTMAX
 10
175.0012498047485
 20
211.125
 30
0
  9
$LIMMIN
 10
0
 20
0
  9
$LIMMAX
 10
420
 20
297
  9
$ORTHOMODE
 70
    0
  9
$REGENMODE
 70
    1
  9
$FILLMODE
 70
    1
  9
$QTEXTMODE
 70
    0
  9
$MIRRTEXT
 70
    0
  9
$LTSCALE
 40
1
  9
$ATTMODE
 70
    0
  9
$TEXTSIZE
 40
2.5
  9
$TRACEWID
 40
15.68
  9
$TEXTSTYLE
  7
STANDARD
  9
$CLAYER
  8
Messure+
  9
$CELTYPE
  6
BYLAYER
  9
$CECOLOR
 62
  256
  9
$CELTSCALE
 40
1
  9
$DISPSILH
 70
    0
  9
$DIMSCALE
 40
1
  9
$DIMASZ
 40
2.5
  9
$DIMEXO
 40
0.625
  9
$DIMDLI
 40
3.75
  9
$DIMRND
 40
0
  9
$DIMDLE
 40
0
  9
$DIMEXE
 40
1.25
  9
$DIMTP
 40
0
  9
$DIMTM
 40
0
  9
$DIMTXT
 40
2.5
  9
$DIMCEN
 40
2.5
  9
$DIMTSZ
 40
0
  9
$DIMTOL
 70
    0
  9
$DIMLIM
 70
    0
  9
$DIMTIH
 70
    0
  9
$DIMTOH
 70
    0
  9
$DIMSE1
 70
    0
  9
$DIMSE2
 70
    0
  9
$DIMTAD
 70
    1
  9
$DIMZIN
 70
    1
  9
$DIMBLK
  1

  9
$DIMASO
 70
    1
  9
$DIMSHO
 70
    1
  9
$DIMPOST
  1

  9
$DIMAPOST
  1

  9
$DIMALT
 70
    0
  9
$DIMALTD
 70
    3
  9
$DIMALTF
 40
0.03937
  9
$DIMLFAC
 40
1
  9
$DIMTOFL
 70
    1
  9
$DIMTVP
 40
0
  9
$DIMTIX
 70
    0
  9
$DIMSOXD
 70
    0
  9
$DIMSAH
 70
    0
  9
$DIMBLK1
  1

  9
$DIMBLK2
  1

  9
$DIMSTYLE
  2
STANDARD
  9
$DIMCLRD
 70
    0
  9
$DIMCLRE
 70
    0
  9
$DIMCLRT
 70
    0
  9
$DIMTFAC
 40
1
  9
$DIMGAP
 40
0.625
  9
$DIMJUST
 70
    0
  9
$DIMSD1
 70
    0
  9
$DIMSD2
 70
    0
  9
$DIMTOLJ
 70
    0
  9
$DIMTZIN
 70
    8
  9
$DIMALTZ
 70
    0
  9
$DIMALTTZ
 70
    0
  9
$DIMUPT
 70
    0
  9
$DIMDEC
 70
    1
  9
$DIMTDEC
 70
    2
  9
$DIMALTU
 70
    2
  9
$DIMALTTD
 70
    3
  9
$DIMTXSTY
  7
standard
  9
$DIMAUNIT
 70
    0
  9
$DIMADEC
 70
    2
  9
$DIMALTRND
 40
0
  9
$DIMAZIN
 70
    0
  9
$DIMDSEP
 70
    0
  9
$DIMATFIT
 70
    3
  9
$DIMFRAC
 70
    0
  9
$DIMLDRBLK
  1
STANDARD
  9
$DIMLUNIT
 70
    2
  9
$DIMLWD
 70
   -2
  9
$DIMLWE
 70
   -2
  9
$DIMTMOVE
 70
    0
  9
$DIMFXL
 40
1
  9
$DIMFXLON
 70
    0
  9
$DIMJOGANG
 40
0.7854
  9
$DIMTFILL
 70
    0
  9
$DIMTFILLCLR
 70
    0
  9
$DIMARCSYM
 70
    0
  9
$DIMLTYPE
  6

  9
$DIMLTEX1
  6

  9
$DIMLTEX2
  6

  9
$LUNITS
 70
    2
  9
$LUPREC
 70
    4
  9
$SKETCHINC
 40
1
  9
$FILLETRAD
 40
0
  9
$AUNITS
 70
    0
  9
$AUPREC
 70
    2
  9
$MENU
  1
.
  9
$ELEVATION
 40
0
  9
$PELEVATION
 40
0
  9
$THICKNESS
 40
0
  9
$LIMCHECK
 70
    0
  9
$CHAMFERA
 40
0
  9
$CHAMFERB
 40
0
  9
$CHAMFERC
 40
0
  9
$CHAMFERD
 40
0
  9
$SKPOLY
 70
    0
  9
$USRTIMER
 70
    1
  9
$ANGBASE
 50
0
  9
$ANGDIR
 70
    0
  9
$PDMODE
 70
   96
  9
$PDSIZE
 40
-2
  9
$PLINEWID
 40
0
  9
$SPLFRAME
 70
    0
  9
$SPLINETYPE
 70
    2
  9
$SPLINESEGS
 70
    8
  9
$HANDSEED
  5
20000
  9
$SURFTAB1
 70
    6
  9
$SURFTAB2
 70
    6
  9
$SURFTYPE
 70
    6
  9
$SURFU
 70
    6
  9
$SURFV
 70
    6
  9
$UCSBASE
  2

  9
$UCSNAME
  2

  9
$UCSORG
 10
0
 20
0
 30
0
  9
$UCSXDIR
 10
1
 20
0
 30
0
  9
$UCSYDIR
 10
0
 20
1
 30
0
  9
$UCSORTHOREF
  2

  9
$UCSORTHOVIEW
 70
    0
  9
$UCSORGTOP
 10
0
 20
0
 30
0
  9
$UCSORGBOTTOM
 10
0
 20
0
 30
0
  9
$UCSORGLEFT
 10
0
 20
0
 30
0
  9
$UCSORGRIGHT
 10
0
 20
0
 30
0
  9
$UCSORGFRONT
 10
0
 20
0
 30
0
  9
$UCSORGBACK
 10
0
 20
0
 30
0
  9
$PUCSBASE
  2

  9
$PUCSNAME
  2

  9
$PUCSORG
 10
0
 20
0
 30
0
  9
$PUCSXDIR
 10
1
 20
0
 30
0
  9
$PUCSYDIR
 10
0
 20
1
 30
0
  9
$PUCSORTHOREF
  2

  9
$PUCSORTHOVIEW
 70
    0
  9
$PUCSORGTOP
 10
0
 20
0
 30
0
  9
$PUCSORGBOTTOM
 10
0
 20
0
 30
0
  9
$PUCSORGLEFT
 10
0
 20
0
 30
0
  9
$PUCSORGRIGHT
 10
0
 20
0
 30
0
  9
$PUCSORGFRONT
 10
0
 20
0
 30
0
  9
$PUCSORGBACK
 10
0
 20
0
 30
0
  9
$USERI1
 70
    0
  9
$USERI2
 70
    0
  9
$USERI3
 70
    0
  9
$USERI4
 70
    0
  9
$USERI5
 70
    0
  9
$USERR1
 40
0
  9
$USERR2
 40
0
  9
$USERR3
 40
0
  9
$USERR4
 40
0
  9
$USERR5
 40
0
  9
$WORLDVIEW
 70
    1
  9
$SHADEDGE
 70
    3
  9
$SHADEDIF
 70
   70
  9
$TILEMODE
 70
    1
  9
$MAXACTVP
 70
   64
  9
$PINSBASE
 10
9.861383887707134
 20
22.61245075072938
 30
0
  9
$PLIMCHECK
 70
    0
  9
$PEXTMIN
 10
0
 20
0
 30
0
  9
$PEXTMAX
 10
0
 20
0
 30
0
  9
$GRIDMODE
 70
    1
  9
$SNAPSTYLE
 70
    0
  9
$GRIDUNIT
 10
0
 20
0
  9
$PLIMMIN
 10
0
 20
0
  9
$PLIMMAX
 10
210
 20
297
  9
$UNITMODE
 70
    0
  9
$VISRETAIN
 70
    1
  9
$PLINEGEN
 70
    0
  9
$PSLTSCALE
 70
    1
  9
$TREEDEPTH
 70
 3020
  9
$CMLSTYLE
  2
Standard
  9
$CMLJUST
 70
    0
  9
$CMLSCALE
 40
20
  9
$PROXYGRAPHICS
 70
    1
  9
$MEASUREMENT
 70
    1
  9
$CELWEIGHT
370
   -1
  9
$ENDCAPS
280
    0
  9
$JOINSTYLE
280
    0
  9
$LWDISPLAY
290
    0
  9
$INSUNITS
 70
    4
  9
$HYPERLINKBASE
  1

  9
$STYLESHEET
  1

  9
$XEDIT
290
    1
  9
$CEPSNTYPE
380
    0
  9
$PSTYLEMODE
290
    1
  9
$EXTNAMES
290
    1
  9
$PSVPSCALE
 40
1
  9
$OLESTARTUP
290
    0
  9
$SORTENTS
280
  127
  9
$INDEXCTL
280
    0
  9
$HIDETEXT
280
    1
  9
$XCLIPFRAME
290
    0
  9
$HALOGAP
280
    0
  9
$OBSCOLOR
 70
  257
  9
$OBSLTYPE
280
    0
  9
$INTERSECTIONDISPLAY
280
    0
  9
$INTERSECTIONCOLOR
 70
  257
  9
$DIMASSOC
280
    1
  9
$PROJECTNAME
  1

  9
$CAMERADISPLAY
290
    0
  9
$LENSLENGTH
 40
50
  9
$CAMERAHEIGHT
 40
0
  9
$STEPSPERSEC
 40
2
  9
$STEPSIZE
 40
50
  9
$3DDWFPREC
 40
2
  9
$PSOLWIDTH
 40
5
  9
$PSOLHEIGHT
 40
80
  9
$LOFTANG1
 40
1.570796326794897
  9
$LOFTANG2
 40
1.570796326794897
  9
$LOFTMAG1
 40
0
  9
$LOFTMAG2
 40
0
  9
$LOFTPARAM
 70
    7
  9
$LOFTNORMALS
280
    1
  9
$LATITUDE
 40
1
  9
$LONGITUDE
 40
1
  9
$NORTHDIRECTION
 40
0
  9
$TIMEZONE
 70
-8000
  9
$LIGHTGLYPHDISPLAY
280
    1
  9
$TILEMODELIGHTSYNCH
280
    1
  9
$SOLIDHIST
280
    1
  9
$SHOWHIST
280
    1
  9
$DWFFRAME
280
    2
  9
$DGNFRAME
280
    0
  9
$REALWORLDSCALE
290
    1
  9
$INTERFERECOLOR
 62
    1
  9
$CSHADOW
280
    0
  9
$SHADOWPLANELOCATION
 40
0
  0
ENDSEC
  0
SECTION
  2
CLASSES
  0
ENDSEC
  0
SECTION
  2
TABLES
  0
TABLE
  2
VPORT
  5
8
330
0
100
AcDbSymbolTable
 70
    1
  0
VPORT
  5
31
330
2
100
AcDbSymbolTableRecord
100
AcDbViewportTableRecord
  2
*ACTIVE
 70
    0
 10
0
 20
0
 11
1
 21
1
 12
187.9671864178157
 22
200.6603728569498
 13
0
 23
0
 14
10
 24
10
 15
10
 25
10
 16
0
 26
0
 36
1
 17
0
 27
0
 37
0
 40
546.077084679344
 41
1.090999010880316
 42
50
 43
0
 44
0
 50
0
 51
0
 71
    0
 72
  100
 73
    1
 74
    3
 75
    0
 76
    1
 77
    0
 78
    0
281
    0
 65
    1
110
0
120
0
130
0
111
1
121
0
131
0
112
0
122
1
132
0
 79
    0
146
0
348
10020
 60
    7
 61
    5
292
1
282
    1
141
0
142
0
 63
  250
421
3358443
  0
ENDTAB
  0
TABLE
  2
LTYPE
  5
5
330
0
100
AcDbSymbolTable
 70
    4
  0
LTYPE
  5
14
330
5
100
AcDbSymbolTableRecord
100
AcDbLinetypeTableRecord
  2
ByBlock
 70
    0
  3

 72
   65
 73
    0
 40
0
  0
LTYPE
  5
15
330
5
100
AcDbSymbolTableRecord
100
AcDbLinetypeTableRecord
  2
ByLayer
 70
    0
  3

 72
   65
 73
    0
 40
0
  0
LTYPE
  5
16
330
5
100
AcDbSymbolTableRecord
100
AcDbLinetypeTableRecord
  2
Continuous
 70
    0
  3
Solid line
 72
   65
 73
    0
 40
0
  0
LTYPE
  5
32
330
5
100
AcDbSymbolTableRecord
100
AcDbLinetypeTableRecord
  2
DOT
 70
    0
  3
Dot . . . . . . . . . . . . . . . . . . . . . .
 72
   65
 73
    2
 40
6.35
 49
0
 74
    0
 49
-6.35
 74
    0
  0
LTYPE
  5
33
330
5
100
AcDbSymbolTableRecord
100
AcDbLinetypeTableRecord
  2
DOTTINY
 70
    0
  3
Dot (.15x) .....................................
 72
   65
 73
    2
 40
0.9525
 49
0
 74
    0
 49
-0.9525
 74
    0
  0
LTYPE
  5
34
330
5
100
AcDbSymbolTableRecord
100
AcDbLinetypeTableRecord
  2
DOT2
 70
    0
  3
Dot (.5x) .....................................
 72
   65
 73
    2
 40
3.175
 49
0
 74
    0
 49
-3.175
 74
    0
  0
LTYPE
  5
35
330
5
100
AcDbSymbolTableRecord
100
AcDbLinetypeTableRecord
  2
DOTX2
 70
    0
  3
Dot (2x) .  .  .  .  .  .  .  .  .  .  .  .  .
 72
   65
 73
    2
 40
12.7
 49
0
 74
    0
 49
-12.7
 74
    0
  0
LTYPE
  5
36
330
5
100
AcDbSymbolTableRecord
100
AcDbLinetypeTableRecord
  2
DASHED
 70
    0
  3
Dashed _ _ _ _ _ _ _ _ _ _ _ _ _ _ _ _ _
 72
   65
 73
    2
 40
19.05
 49
12.7
 74
    0
 49
-6.35
 74
    0
  0
LTYPE
  5
37
330
5
100
AcDbSymbolTableRecord
100
AcDbLinetypeTableRecord
  2
DASHEDTINY
 70
    0
  3
Dashed (.15x) _ _ _ _ _ _ _ _ _ _ _ _ _ _ _ _ _
 72
   65
 73
    2
 40
2.8575
 49
1.905
 74
    0
 49
-0.9525
 74
    0
  0
LTYPE
  5
38
330
5
100
AcDbSymbolTableRecord
100
AcDbLinetypeTableRecord
  2
DASHED2
 70
    0
  3
Dashed (.5x) _ _ _ _ _ _ _ _ _ _ _ _ _ _ _ _ _
 72
   65
 73
    2
 40
9.524999999999999
 49
6.35
 74
    0
 49
-3.175
 74
    0
  0
LTYPE
  5
39
330
5
100
AcDbSymbolTableRecord
100
AcDbLinetypeTableRecord
  2
DASHEDX2
 70
    0
  3
Dashed (2x) ____  ____  ____  ____  ____  ___
 72
   65
 73
    2
 40
38.09999999999999
 49
25.4
 74
    0
 49
-12.7
 74
    0
  0
LTYPE
  5
3A
330
5
100
AcDbSymbolTableRecord
100
AcDbLinetypeTableRecord
  2
DASHDOT
 70
    0
  3
Dash dot __ . __ . __ . __ . __ . __ . __ . __
 72
   65
 73
    4
 40
25.4
 49
12.7
 74
    0
 49
-6.35
 74
    0
 49
0
 74
    0
 49
-6.35
 74
    0
  0
LTYPE
  5
3B
330
5
100
AcDbSymbolTableRecord
100
AcDbLinetypeTableRecord
  2
DASHDOTTINY
 70
    0
  3
Dash dot (.15x) _._._._._._._._._._._._._._._.
 72
   65
 73
    4
 40
3.81
 49
1.905
 74
    0
 49
-0.9525
 74
    0
 49
0
 74
    0
 49
-0.9525
 74
    0
  0
LTYPE
  5
3C
330
5
100
AcDbSymbolTableRecord
100
AcDbLinetypeTableRecord
  2
DASHDOT2
 70
    0
  3
Dash dot (.5x) _._._._._._._._._._._._._._._.
 72
   65
 73
    4
 40
12.7
 49
6.35
 74
    0
 49
-3.175
 74
    0
 49
0
 74
    0
 49
-3.175
 74
    0
  0
LTYPE
  5
3D
330
5
100
AcDbSymbolTableRecord
100
AcDbLinetypeTableRecord
  2
DASHDOTX2
 70
    0
  3
Dash dot (2x) ____  .  ____  .  ____  .  ___
 72
   65
 73
    4
 40
50.8
 49
25.4
 74
    0
 49
-12.7
 74
    0
 49
0
 74
    0
 49
-12.7
 74
    0
  0
LTYPE
  5
3E
330
5
100
AcDbSymbolTableRecord
100
AcDbLinetypeTableRecord
  2
DIVIDE
 70
    0
  3
Divide ____ . . ____ . . ____ . . ____ . . ____
 72
   65
 73
    6
 40
31.75
 49
12.7
 74
    0
 49
-6.35
 74
    0
 49
0
 74
    0
 49
-6.35
 74
    0
 49
0
 74
    0
 49
-6.35
 74
    0
  0
LTYPE
  5
3F
330
5
100
AcDbSymbolTableRecord
100
AcDbLinetypeTableRecord
  2
DIVIDETINY
 70
    0
  3
Divide (.15x) __..__..__..__..__..__..__..__.._
 72
   65
 73
    6
 40
4.7625
 49
1.905
 74
    0
 49
-0.9525
 74
    0
 49
0
 74
    0
 49
-0.9525
 74
    0
 49
0
 74
    0
 49
-0.9525
 74
    0
  0
LTYPE
  5
40
330
5
100
AcDbSymbolTableRecord
100
AcDbLinetypeTableRecord
  2
DIVIDE2
 70
    0
  3
Divide (.5x) __..__..__..__..__..__..__..__.._
 72
   65
 73
    6
 40
15.875
 49
6.35
 74
    0
 49
-3.175
 74
    0
 49
0
 74
    0
 49
-3.175
 74
    0
 49
0
 74
    0
 49
-3.175
 74
    0
  0
LTYPE
  5
41
330
5
100
AcDbSymbolTableRecord
100
AcDbLinetypeTableRecord
  2
DIVIDEX2
 70
    0
  3
Divide (2x) ________  .  .  ________  .  .  _
 72
   65
 73
    6
 40
63.5
 49
25.4
 74
    0
 49
-12.7
 74
    0
 49
0
 74
    0
 49
-12.7
 74
    0
 49
0
 74
    0
 49
-12.7
 74
    0
  0
LTYPE
  5
42
330
5
100
AcDbSymbolTableRecord
100
AcDbLinetypeTableRecord
  2
BORDER
 70
    0
  3
Border __ __ . __ __ . __ __ . __ __ . __ __ .
 72
   65
 73
    6
 40
44.45
 49
12.7
 74
    0
 49
-6.35
 74
    0
 49
12.7
 74
    0
 49
-6.35
 74
    0
 49
0
 74
    0
 49
-6.35
 74
    0
  0
LTYPE
  5
43
330
5
100
AcDbSymbolTableRecord
100
AcDbLinetypeTableRecord
  2
BORDERTINY
 70
    0
  3
Border (.15x) __.__.__.__.__.__.__.__.__.__.__.
 72
   65
 73
    6
 40
6.6675
 49
1.905
 74
    0
 49
-0.9525
 74
    0
 49
1.905
 74
    0
 49
-0.9525
 74
    0
 49
0
 74
    0
 49
-0.9525
 74
    0
  0
LTYPE
  5
44
330
5
100
AcDbSymbolTableRecord
100
AcDbLinetypeTableRecord
  2
BORDER2
 70
    0
  3
Border (.5x) __.__.__.__.__.__.__.__.__.__.__.
 72
   65
 73
    6
 40
22.225
 49
6.35
 74
    0
 49
-3.175
 74
    0
 49
6.35
 74
    0
 49
-3.175
 74
    0
 49
0
 74
    0
 49
-3.175
 74
    0
  0
LTYPE
  5
45
330
5
100
AcDbSymbolTableRecord
100
AcDbLinetypeTableRecord
  2
BORDERX2
 70
    0
  3
Border (2x) ____  ____  .  ____  ____  .  ___
 72
   65
 73
    6
 40
88.89999999999999
 49
25.4
 74
    0
 49
-12.7
 74
    0
 49
25.4
 74
    0
 49
-12.7
 74
    0
 49
0
 74
    0
 49
-12.7
 74
    0
  0
LTYPE
  5
46
330
5
100
AcDbSymbolTableRecord
100
AcDbLinetypeTableRecord
  2
CENTER
 70
    0
  3
Center ____ _ ____ _ ____ _ ____ _ ____ _ ____
 72
   65
 73
    4
 40
50.8
 49
31.75
 74
    0
 49
-6.35
 74
    0
 49
6.35
 74
    0
 49
-6.35
 74
    0
  0
LTYPE
  5
47
330
5
100
AcDbSymbolTableRecord
100
AcDbLinetypeTableRecord
  2
CENTERTINY
 70
    0
  3
Center (.15x) ___ _ ___ _ ___ _ ___ _ ___ _ ___
 72
   65
 73
    4
 40
7.619999999999999
 49
4.7625
 74
    0
 49
-0.9525
 74
    0
 49
0.9525
 74
    0
 49
-0.9525
 74
    0
  0
LTYPE
  5
48
330
5
100
AcDbSymbolTableRecord
100
AcDbLinetypeTableRecord
  2
CENTER2
 70
    0
  3
Center (.5x) ___ _ ___ _ ___ _ ___ _ ___ _ ___
 72
   65
 73
    4
 40
28.575
 49
19.05
 74
    0
 49
-3.175
 74
    0
 49
3.175
 74
    0
 49
-3.175
 74
    0
  0
LTYPE
  5
49
330
5
100
AcDbSymbolTableRecord
100
AcDbLinetypeTableRecord
  2
CENTERX2
 70
    0
  3
Center (2x) ________  __  ________  __  _____
 72
   65
 73
    4
 40
101.6
 49
63.5
 74
    0
 49
-12.7
 74
    0
 49
12.7
 74
    0
 49
-12.7
 74
    0
  0
ENDTAB
  0
TABLE
  2
LAYER
  5
2
330
0
100
AcDbSymbolTable
 70
    1
  0
LAYER
  5
10
330
2
100
AcDbSymbolTableRecord
100
AcDbLayerTableRecord
  2
0
 70
    0
 62
    7
  6
CONTINUOUS
370
   25
390
F
  0
LAYER
  5
4A
330
2
100
AcDbSymbolTableRecord
100
AcDbLayerTableRecord
  2
Help
 70
    0
 62
    7
  6
DASHEDTINY
370
   13
390
F
  0
LAYER
  5
4B
330
2
100
AcDbSymbolTableRecord
100
AcDbLayerTableRecord
  2
Messure+
 70
    0
 62
    5
  6
CONTINUOUS
370
    9
390
F
  0
ENDTAB
  0
TABLE
  2
STYLE
  5
3
330
0
100
AcDbSymbolTable
 70
    3
  0
STYLE
  5
4C
330
2
100
AcDbSymbolTableRecord
100
AcDbTextStyleTableRecord
  2
Standard
 70
    0
 40
0
 41
1
 50
0
 71
    0
 42
1
  3
txt
  4

  0
ENDTAB
  0
TABLE
  2
VIEW
  5
6
330
0
100
AcDbSymbolTable
 70
    0
  0
ENDTAB
  0
TABLE
  2
UCS
  5
7
330
0
100
AcDbSymbolTable
 70
    0
  0
ENDTAB
  0
TABLE
  2
APPID
  5
9
330
0
100
AcDbSymbolTable
 70
    1
  0
APPID
  5
12
330
9
100
AcDbSymbolTableRecord
100
AcDbRegAppTableRecord
  2
ACAD
 70
    0
  0
APPID
  5
4D
330
9
100
AcDbSymbolTableRecord
100
AcDbRegAppTableRecord
  2
LibreCad
 70
    0
  0
ENDTAB
  0
TABLE
  2
DIMSTYLE
  5
A
330
0
100
AcDbSymbolTable
 70
    1
100
AcDbDimStyleTable
 71
    1
  0
DIMSTYLE
105
4E
330
A
100
AcDbSymbolTableRecord
100
AcDbDimStyleTableRecord
  2
Standard
 70
    0
 40
1
 41
2.5
 42
0.625
 43
0.38
 44
1.25
 45
0
 46
0
 47
0
 48
0
 49
1
140
2.5
141
0.09
142
0
143
25.4
144
1
145
0
146
1
147
0.625
148
0
 71
    0
 72
    0
 73
    0
 74
    1
 75
    0
 76
    0
 77
    0
 78
    1
 79
    0
170
    0
171
    2
172
    0
173
    0
174
    0
175
    0
176
    0
177
    0
178
    0
179
    2
271
    1
272
    4
273
    2
274
    2
275
    0
276
    0
277
    2
278
    0
279
    0
280
    0
281
    0
282
    0
283
    1
284
    0
285
    0
286
    0
288
    0
289
    3
340
4C
  0
ENDTAB
  0
TABLE
  2
BLOCK_RECORD
  5
1
330
0
100
AcDbSymbolTable
 70
    2
  0
BLOCK_RECORD
  5
1F
330
1
100
AcDbSymbolTableRecord
100
AcDbBlockTableRecord
  2
*Model_Space
 70
    0
280
    1
281
    0
  0
BLOCK_RECORD
  5
1E
330
1
100
AcDbSymbolTableRecord
100
AcDbBlockTableRecord
  2
*Paper_Space
 70
    0
280
    1
281
    0
  0
BLOCK_RECORD
  5
4F
330
1
100
AcDbSymbolTableRecord
100
AcDbBlockTableRecord
  2
*D6
 70
    0
280
    1
281
    0
  0
BLOCK_RECORD
  5
52
330
1
100
AcDbSymbolTableRecord
100
AcDbBlockTableRecord
  2
*D11
 70
    0
280
    1
281
    0
  0
BLOCK_RECORD
  5
55
330
1
100
AcDbSymbolTableRecord
100
AcDbBlockTableRecord
  2
*D13
 70
    0
280
    1
281
    0
  0
BLOCK_RECORD
  5
58
330
1
100
AcDbSymbolTableRecord
100
AcDbBlockTableRecord
  2
*D3
 70
    0
280
    1
281
    0
  0
BLOCK_RECORD
  5
5B
330
1
100
AcDbSymbolTableRecord
100
AcDbBlockTableRecord
  2
*D7
 70
    0
280
    1
281
    0
  0
BLOCK_RECORD
  5
5E
330
1
100
AcDbSymbolTableRecord
100
AcDbBlockTableRecord
  2
*D10
 70
    0
280
    1
281
    0
  0
BLOCK_RECORD
  5
61
330
1
100
AcDbSymbolTableRecord
100
AcDbBlockTableRecord
  2
*D4
 70
    0
280
    1
281
    0
  0
BLOCK_RECORD
  5
64
330
1
100
AcDbSymbolTableRecord
100
AcDbBlockTableRecord
  2
*D17
 70
    0
280
    1
281
    0
  0
BLOCK_RECORD
  5
67
330
1
100
AcDbSymbolTableRecord
100
AcDbBlockTableRecord
  2
*D16
 70
    0
280
    1
281
    0
  0
BLOCK_RECORD
  5
6A
330
1
100
AcDbSymbolTableRecord
100
AcDbBlockTableRecord
  2
*D19
 70
    0
280
    1
281
    0
  0
BLOCK_RECORD
  5
6D
330
1
100
AcDbSymbolTableRecord
100
AcDbBlockTableRecord
  2
*D21
 70
    0
280
    1
281
    0
  0
BLOCK_RECORD
  5
70
330
1
100
AcDbSymbolTableRecord
100
AcDbBlockTableRecord
  2
*D15
 70
    0
280
    1
281
    0
  0
BLOCK_RECORD
  5
73
330
1
100
AcDbSymbolTableRecord
100
AcDbBlockTableRecord
  2
*D12
 70
    0
280
    1
281
    0
  0
BLOCK_RECORD
  5
76
330
1
100
AcDbSymbolTableRecord
100
AcDbBlockTableRecord
  2
*D20
 70
    0
280
    1
281
    0
  0
BLOCK_RECORD
  5
79
330
1
100
AcDbSymbolTableRecord
100
AcDbBlockTableRecord
  2
*D9
 70
    0
280
    1
281
    0
  0
BLOCK_RECORD
  5
7C
330
1
100
AcDbSymbolTableRecord
100
AcDbBlockTableRecord
  2
*D2
 70
    0
280
    1
281
    0
  0
BLOCK_RECORD
  5
7F
330
1
100
AcDbSymbolTableRecord
100
AcDbBlockTableRecord
  2
*D14
 70
    0
280
    1
281
    0
  0
BLOCK_RECORD
  5
82
330
1
100
AcDbSymbolTableRecord
100
AcDbBlockTableRecord
  2
*D18
 70
    0
280
    1
281
    0
  0
BLOCK_RECORD
  5
85
330
1
100
AcDbSymbolTableRecord
100
AcDbBlockTableRecord
  2
*D1
 70
    0
280
    1
281
    0
  0
BLOCK_RECORD
  5
88
330
1
100
AcDbSymbolTableRecord
100
AcDbBlockTableRecord
  2
*D5
 70
    0
280
    1
281
    0
  0
BLOCK_RECORD
  5
8B
330
1
100
AcDbSymbolTableRecord
100
AcDbBlockTableRecord
  2
*D8
 70
    0
280
    1
281
    0
  0
ENDTAB
  0
ENDSEC
  0
SECTION
  2
BLOCKS
  0
BLOCK
  5
20
330
1F
100
AcDbEntity
  8
0
100
AcDbBlockBegin
  2
*Model_Space
 70
    0
 10
0
 20
0
 30
0
  3
*Model_Space
  1

  0
ENDBLK
  5
21
330
1F
100
AcDbEntity
  8
0
100
AcDbBlockEnd
  0
BLOCK
  5
1C
330
1B
100
AcDbEntity
  8
0
100
AcDbBlockBegin
  2
*Paper_Space
 70
    0
 10
0
 20
0
 30
0
  3
*Paper_Space
  1

  0
ENDBLK
  5
1D
330
1F
100
AcDbEntity
  8
0
100
AcDbBlockEnd
  0
BLOCK
  5
50
330
4F
100
AcDbEntity
  8
0
100
AcDbBlockBegin
  2
*D6
 70
    1
 10
0
 20
0
  3
*D6
  1

  0
LINE
  5
8E
100
AcDbEntity
  8
Messure+
  6
ByBlock
 62
    0
370
   -2
100
AcDbLine
 10
21
 20
150
 11
21
 21
130
  0
MTEXT
  5
8F
100
AcDbEntity
  8
Messure+
  6
CONTINUOUS
 62
    0
370
   -2
100
AcDbMText
 10
19.125
 20
140
 30
0
 40
2.5
 41
5.833333333333334
 71
    5
 72
    1
  1
20.0
  7
standard
210
0
220
0
230
1
 50
90
 73
    2
 44
1
  0
SOLID
  5
90
100
AcDbEntity
  8
Messure+
  6
ByBlock
 62
    0
370
   -2
100
AcDbTrace
 10
21
 20
150
 30
0
 11
21.41628465777284
 21
147.5
 31
0
 12
20.58371534222716
 22
147.5
 32
0
 13
20.58371534222716
 23
147.5
 33
0
  0
SOLID
  5
91
100
AcDbEntity
  8
Messure+
  6
ByBlock
 62
    0
370
   -2
100
AcDbTrace
 10
21
 20
130
 30
0
 11
20.58371534222716
 21
132.5
 31
0
 12
21.41628465777284
 22
132.5
 32
0
 13
21.41628465777284
 23
132.5
 33
0
  0
LINE
  5
92
100
AcDbEntity
  8
Messure+
  6
ByBlock
 62
    0
370
   -2
100
AcDbLine
 10
34.375
 20
150
 11
19.75
 21
150
  0
LINE
  5
93
100
AcDbEntity
  8
Messure+
  6
ByBlock
 62
    0
370
   -2
100
AcDbLine
 10
37.375
 20
130
 11
19.75
 21
130
  0
ENDBLK
  5
51
330
4F
100
AcDbEntity
  8
0
100
AcDbBlockEnd
  0
BLOCK
  5
53
330
52
100
AcDbEntity
  8
0
100
AcDbBlockBegin
  2
*D11
 70
    1
 10
0
 20
0
  3
*D11
  1

  0
LINE
  5
94
100
AcDbEntity
  8
Messure+
  6
ByBlock
 62
    0
370
   -2
100
AcDbLine
 10
56
 20
150
 11
56
 21
137
  0
MTEXT
  5
95
100
AcDbEntity
  8
Messure+
  6
CONTINUOUS
 62
    0
370
   -2
100
AcDbMText
 10
54.125
 20
147.5694444444445
 30
0
 40
2.5
 41
3.888888888889044
 71
    5
 72
    1
  1
3.0
  7
standard
210
0
220
0
230
1
 50
90
 73
    2
 44
1
  0
SOLID
  5
96
100
AcDbEntity
  8
Messure+
  6
ByBlock
 62
    0
370
   -2
100
AcDbTrace
 10
56
 20
145
 30
0
 11
55.58371534222716
 21
147.5
 31
0
 12
56.41628465777284
 22
147.5
 32
0
 13
56.41628465777284
 23
147.5
 33
0
  0
SOLID
  5
97
100
AcDbEntity
  8
Messure+
  6
ByBlock
 62
    0
370
   -2
100
AcDbTrace
 10
56
 20
142
 30
0
 11
56.41628465777284
 21
139.5
 31
0
 12
55.58371534222716
 22
139.5
 32
0
 13
55.58371534222716
 23
139.5
 33
0
  0
LINE
  5
98
100
AcDbEntity
  8
Messure+
  6
ByBlock
 62
    0
370
   -2
100
AcDbLine
 10
50.625
 20
145
 11
57.25
 21
145
  0
LINE
  5
99
100
AcDbEntity
  8
Messure+
  6
ByBlock
 62
    0
370
   -2
100
AcDbLine
 10
50.625
 20
142
 11
57.25
 21
142
  0
ENDBLK
  5
54
330
52
100
AcDbEntity
  8
0
100
AcDbBlockEnd
  0
BLOCK
  5
56
330
55
100
AcDbEntity
  8
0
100
AcDbBlockBegin
  2
*D13
 70
    1
 10
0
 20
0
  3
*D13
  1

  0
LINE
  5
9A
100
AcDbEntity
  8
Messure+
  6
ByBlock
 62
    0
370
   -2
100
AcDbLine
 10
55
 20
75
 11
145
 21
75
  0
MTEXT
  5
9B
100
AcDbEntity
  8
Messure+
  6
CONTINUOUS
 62
    0
370
   -2
100
AcDbMText
 10
100
 20
76.875
 30
0
 40
2.5
 41
5.833333333333644
 71
    5
 72
    1
  1
90.0
  7
standard
210
0
220
0
230
1
 50
0
 73
    2
 44
1
  0
SOLID
  5
9C
100
AcDbEntity
  8
Messure+
  6
ByBlock
 62
    0
370
   -2
100
AcDbTrace
 10
55
 20
75
 30
0
 11
57.5
 21
75.41628465777283
 31
0
 12
57.5
 22
74.58371534222717
 32
0
 13
57.5
 23
74.58371534222717
 33
0
  0
SOLID
  5
9D
100
AcDbEntity
  8
Messure+
  6
ByBlock
 62
    0
370
   -2
100
AcDbTrace
 10
145
 20
75
 30
0
 11
142.5
 21
74.58371534222717
 31
0
 12
142.5
 22
75.41628465777283
 32
0
 13
142.5
 23
75.41628465777283
 33
0
  0
LINE
  5
9E
100
AcDbEntity
  8
Messure+
  6
ByBlock
 62
    0
370
   -2
100
AcDbLine
 10
55
 20
70.625
 11
55
 21
76.25
  0
LINE
  5
9F
100
AcDbEntity
  8
Messure+
  6
ByBlock
 62
    0
370
   -2
100
AcDbLine
 10
145
 20
70.625
 11
145
 21
76.25
  0
ENDBLK
  5
57
330
55
100
AcDbEntity
  8
0
100
AcDbBlockEnd
  0
BLOCK
  5
59
330
58
100
AcDbEntity
  8
0
100
AcDbBlockBegin
  2
*D3
 70
    1
 10
0
 20
0
  3
*D3
  1

  0
LINE
  5
A0
100
AcDbEntity
  8
Messure+
  6
ByBlock
 62
    0
370
   -2
100
AcDbLine
 10
25
 20
208
 11
55
 21
208
  0
MTEXT
  5
A1
100
AcDbEntity
  8
Messure+
  6
CONTINUOUS
 62
    0
370
   -2
100
AcDbMText
 10
40
 20
209.875
 30
0
 40
2.5
 41
5.833333333333488
 71
    5
 72
    1
  1
30.0
  7
standard
210
0
220
0
230
1
 50
0
 73
    2
 44
1
  0
SOLID
  5
A2
100
AcDbEntity
  8
Messure+
  6
ByBlock
 62
    0
370
   -2
100
AcDbTrace
 10
25
 20
208
 30
0
 11
27.5
 21
208.4162846577728
 31
0
 12
27.5
 22
207.5837153422272
 32
0
 13
27.5
 23
207.5837153422272
 33
0
  0
SOLID
  5
A3
100
AcDbEntity
  8
Messure+
  6
ByBlock
 62
    0
370
   -2
100
AcDbTrace
 10
55
 20
208
 30
0
 11
52.5
 21
207.5837153422272
 31
0
 12
52.5
 22
208.4162846577728
 32
0
 13
52.5
 23
208.4162846577728
 33
0
  0
LINE
  5
A4
100
AcDbEntity
  8
Messure+
  6
ByBlock
 62
    0
370
   -2
100
AcDbLine
 10
25
 20
203.625
 11
25
 21
209.25
  0
LINE
  5
A5
100
AcDbEntity
  8
Messure+
  6
ByBlock
 62
    0
370
   -2
100
AcDbLine
 10
55
 20
203.625
 11
55
 21
209.25
  0
ENDBLK
  5
5A
330
58
100
AcDbEntity
  8
0
100
AcDbBlockEnd
  0
BLOCK
  5
5C
330
5B
100
AcDbEntity
  8
0
100
AcDbBlockBegin
  2
*D7
 70
    1
 10
0
 20
0
  3
*D7
  1

  0
LINE
  5
A6
100
AcDbEntity
  8
Messure+
  6
ByBlock
 62
    0
370
   -2
100
AcDbLine
 10
56
 20
125
 11
56
 21
80
  0
MTEXT
  5
A7
100
AcDbEntity
  8
Messure+
  6
CONTINUOUS
 62
    0
370
   -2
100
AcDbMText
 10
54.125
 20
102.5
 30
0
 40
2.5
 41
6.111111111111267
 71
    5
 72
    1
  1
45.0
  7
standard
210
0
220
0
230
1
 50
90
 73
    2
 44
1
  0
SOLID
  5
A8
100
AcDbEntity
  8
Messure+
  6
ByBlock
 62
    0
370
   -2
100
AcDbTrace
 10
56
 20
125
 30
0
 11
56.41628465777284
 21
122.5
 31
0
 12
55.58371534222716
 22
122.5
 32
0
 13
55.58371534222716
 23
122.5
 33
0
  0
SOLID
  5
A9
100
AcDbEntity
  8
Messure+
  6
ByBlock
 62
    0
370
   -2
100
AcDbTrace
 10
56
 20
80
 30
0
 11
55.58371534222716
 21
82.5
 31
0
 12
56.41628465777284
 22
82.5
 32
0
 13
56.41628465777284
 23
82.5
 33
0
  0
LINE
  5
AA
100
AcDbEntity
  8
Messure+
  6
ByBlock
 62
    0
370
   -2
100
AcDbLine
 10
59.375
 20
125
 11
54.75
 21
125
  0
LINE
  5
AB
100
AcDbEntity
  8
Messure+
  6
ByBlock
 62
    0
370
   -2
100
AcDbLine
 10
59.375
 20
80
 11
54.75
 21
80
  0
ENDBLK
  5
5D
330
5B
100
AcDbEntity
  8
0
100
AcDbBlockEnd
  0
BLOCK
  5
5F
330
5E
100
AcDbEntity
  8
0
100
AcDbBlockBegin
  2
*D10
 70
    1
 10
0
 20
0
  3
*D10
  1

  0
LINE
  5
AC
100
AcDbEntity
  8
Messure+
  6
ByBlock
 62
    0
370
   -2
100
AcDbLine
 10
30
 20
153
 11
45
 21
153
  0
MTEXT
  5
AD
100
AcDbEntity
  8
Messure+
  6
CONTINUOUS
 62
    0
370
   -2
100
AcDbMText
 10
37.5
 20
154.875
 30
0
 40
2.5
 41
3.888888888889044
 71
    5
 72
    1
  1
5.0
  7
standard
210
0
220
0
230
1
 50
0
 73
    2
 44
1
  0
SOLID
  5
AE
100
AcDbEntity
  8
Messure+
  6
ByBlock
 62
    0
370
   -2
100
AcDbTrace
 10
35
 20
153
 30
0
 11
32.5
 21
152.5837153422272
 31
0
 12
32.5
 22
153.4162846577728
 32
0
 13
32.5
 23
153.4162846577728
 33
0
  0
SOLID
  5
AF
100
AcDbEntity
  8
Messure+
  6
ByBlock
 62
    0
370
   -2
100
AcDbTrace
 10
40
 20
153
 30
0
 11
42.5
 21
153.4162846577728
 31
0
 12
42.5
 22
152.5837153422272
 32
0
 13
42.5
 23
152.5837153422272
 33
0
  0
LINE
  5
B0
100
AcDbEntity
  8
Messure+
  6
ByBlock
 62
    0
370
   -2
100
AcDbLine
 10
35
 20
150.625
 11
35
 21
154.25
  0
LINE
  5
B1
100
AcDbEntity
  8
Messure+
  6
ByBlock
 62
    0
370
   -2
100
AcDbLine
 10
40
 20
150.625
 11
40
 21
154.25
  0
ENDBLK
  5
60
330
5E
100
AcDbEntity
  8
0
100
AcDbBlockEnd
  0
BLOCK
  5
62
330
61
100
AcDbEntity
  8
0
100
AcDbBlockBegin
  2
*D4
 70
    1
 10
0
 20
0
  3
*D4
  1

  0
LINE
  5
B2
100
AcDbEntity
  8
Messure+
  6
ByBlock
 62
    0
370
   -2
100
AcDbLine
 10
20
 20
193
 11
20
 21
203
  0
MTEXT
  5
B3
100
AcDbEntity
  8
Messure+
  6
CONTINUOUS
 62
    0
370
   -2
100
AcDbMText
 10
18.125
 20
198
 30
0
 40
2.5
 41
5.277777777777779
 71
    5
 72
    1
  1
10.0
  7
standard
210
0
220
0
230
1
 50
90
 73
    2
 44
1
  0
SOLID
  5
B4
100
AcDbEntity
  8
Messure+
  6
ByBlock
 62
    0
370
   -2
100
AcDbTrace
 10
20
 20
193
 30
0
 11
19.58371534222716
 21
195.5
 31
0
 12
20.41628465777284
 22
195.5
 32
0
 13
20.41628465777284
 23
195.5
 33
0
  0
SOLID
  5
B5
100
AcDbEntity
  8
Messure+
  6
ByBlock
 62
    0
370
   -2
100
AcDbTrace
 10
20
 20
203
 30
0
 11
20.41628465777284
 21
200.5
 31
0
 12
19.58371534222716
 22
200.5
 32
0
 13
19.58371534222716
 23
200.5
 33
0
  0
LINE
  5
B6
100
AcDbEntity
  8
Messure+
  6
ByBlock
 62
    0
370
   -2
100
AcDbLine
 10
24.375
 20
193
 11
18.75
 21
193
  0
LINE
  5
B7
100
AcDbEntity
  8
Messure+
  6
ByBlock
 62
    0
370
   -2
100
AcDbLine
 10
24.375
 20
203
 11
18.75
 21
203
  0
ENDBLK
  5
63
330
61
100
AcDbEntity
  8
0
100
AcDbBlockEnd
  0
BLOCK
  5
65
330
64
100
AcDbEntity
  8
0
100
AcDbBlockBegin
  2
*D17
 70
    1
 10
0
 20
0
  3
*D17
  1

  0
LINE
  5
B8
100
AcDbEntity
  8
Messure+
  6
ByBlock
 62
    0
370
   -2
100
AcDbLine
 10
58
 20
18
 11
72
 21
18
  0
MTEXT
  5
B9
100
AcDbEntity
  8
Messure+
  6
CONTINUOUS
 62
    0
370
   -2
100
AcDbMText
 10
69.70833333333333
 20
19.875
 30
0
 40
2.5
 41
4.166666666666667
 71
    5
 72
    1
  1
4.0
  7
standard
210
0
220
0
230
1
 50
0
 73
    2
 44
1
  0
SOLID
  5
BA
100
AcDbEntity
  8
Messure+
  6
ByBlock
 62
    0
370
   -2
100
AcDbTrace
 10
63
 20
18
 30
0
 11
60.5
 21
17.58371534222716
 31
0
 12
60.5
 22
18.41628465777284
 32
0
 13
60.5
 23
18.41628465777284
 33
0
  0
SOLID
  5
BB
100
AcDbEntity
  8
Messure+
  6
ByBlock
 62
    0
370
   -2
100
AcDbTrace
 10
67
 20
18
 30
0
 11
69.5
 21
18.41628465777284
 31
0
 12
69.5
 22
17.58371534222716
 32
0
 13
69.5
 23
17.58371534222716
 33
0
  0
ENDBLK
  5
66
330
64
100
AcDbEntity
  8
0
100
AcDbBlockEnd
  0
BLOCK
  5
68
330
67
100
AcDbEntity
  8
0
100
AcDbBlockBegin
  2
*D16
 70
    1
 10
0
 20
0
  3
*D16
  1

  0
LINE
  5
BC
100
AcDbEntity
  8
Messure+
  6
ByBlock
 62
    0
370
   -2
100
AcDbLine
 10
40
 20
108
 11
40
 21
122
  0
MTEXT
  5
BD
100
AcDbEntity
  8
Messure+
  6
CONTINUOUS
 62
    0
370
   -2
100
AcDbMText
 10
38.125
 20
119.7083333333333
 30
0
 40
2.5
 41
4.166666666666667
 71
    5
 72
    1
  1
4.0
  7
standard
210
0
220
0
230
1
 50
90
 73
    2
 44
1
  0
SOLID
  5
BE
100
AcDbEntity
  8
Messure+
  6
ByBlock
 62
    0
370
   -2
100
AcDbTrace
 10
40
 20
113
 30
0
 11
40.41628465777284
 21
110.5
 31
0
 12
39.58371534222716
 22
110.5
 32
0
 13
39.58371534222716
 23
110.5
 33
0
  0
SOLID
  5
BF
100
AcDbEntity
  8
Messure+
  6
ByBlock
 62
    0
370
   -2
100
AcDbTrace
 10
40
 20
117
 30
0
 11
39.58371534222716
 21
119.5
 31
0
 12
40.41628465777284
 22
119.5
 32
0
 13
40.41628465777284
 23
119.5
 33
0
  0
ENDBLK
  5
69
330
67
100
AcDbEntity
  8
0
100
AcDbBlockEnd
  0
BLOCK
  5
6B
330
6A
100
AcDbEntity
  8
0
100
AcDbBlockBegin
  2
*D19
 70
    1
 10
0
 20
0
  3
*D19
  1

  0
LINE
  5
C0
100
AcDbEntity
  8
Messure+
  6
ByBlock
 62
    0
370
   -2
100
AcDbLine
 10
36
 20
181
 11
44
 21
181
  0
MTEXT
  5
C1
100
AcDbEntity
  8
Messure+
  6
CONTINUOUS
 62
    0
370
   -2
100
AcDbMText
 10
40
 20
182.875
 30
0
 40
2.5
 41
3.888888888888889
 71
    5
 72
    1
  1
8.0
  7
standard
210
0
220
0
230
1
 50
0
 73
    2
 44
1
  0
SOLID
  5
C2
100
AcDbEntity
  8
Messure+
  6
ByBlock
 62
    0
370
   -2
100
AcDbTrace
 10
36
 20
181
 30
0
 11
38.5
 21
181.4162846577728
 31
0
 12
38.5
 22
180.5837153422272
 32
0
 13
38.5
 23
180.5837153422272
 33
0
  0
SOLID
  5
C3
100
AcDbEntity
  8
Messure+
  6
ByBlock
 62
    0
370
   -2
100
AcDbTrace
 10
44
 20
181
 30
0
 11
41.5
 21
180.5837153422272
 31
0
 12
41.5
 22
181.4162846577728
 32
0
 13
41.5
 23
181.4162846577728
 33
0
  0
LINE
  5
C4
100
AcDbEntity
  8
Messure+
  6
ByBlock
 62
    0
370
   -2
100
AcDbLine
 10
36
 20
173.625
 11
36
 21
182.25
  0
LINE
  5
C5
100
AcDbEntity
  8
Messure+
  6
ByBlock
 62
    0
370
   -2
100
AcDbLine
 10
44
 20
173.625
 11
44
 21
182.25
  0
ENDBLK
  5
6C
330
6A
100
AcDbEntity
  8
0
100
AcDbBlockEnd
  0
BLOCK
  5
6E
330
6D
100
AcDbEntity
  8
0
100
AcDbBlockBegin
  2
*D21
 70
    1
 10
0
 20
0
  3
*D21
  1

  0
LINE
  5
C6
100
AcDbEntity
  8
Messure+
  6
ByBlock
 62
    0
370
   -2
100
AcDbLine
 10
90
 20
0
 11
90
 21
13
  0
MTEXT
  5
C7
100
AcDbEntity
  8
Messure+
  6
CONTINUOUS
 62
    0
370
   -2
100
AcDbMText
 10
88.125
 20
6.5
 30
0
 40
2.5
 41
5.277777777777933
 71
    5
 72
    1
  1
13.0
  7
standard
210
0
220
0
230
1
 50
90
 73
    2
 44
1
  0
SOLID
  5
C8
100
AcDbEntity
  8
Messure+
  6
ByBlock
 62
    0
370
   -2
100
AcDbTrace
 10
90
 20
0
 30
0
 11
89.58371534222717
 21
2.5
 31
0
 12
90.41628465777283
 22
2.5
 32
0
 13
90.41628465777283
 23
2.5
 33
0
  0
SOLID
  5
C9
100
AcDbEntity
  8
Messure+
  6
ByBlock
 62
    0
370
   -2
100
AcDbTrace
 10
90
 20
13
 30
0
 11
90.41628465777283
 21
10.5
 31
0
 12
89.58371534222717
 22
10.5
 32
0
 13
89.58371534222717
 23
10.5
 33
0
  0
LINE
  5
CA
100
AcDbEntity
  8
Messure+
  6
ByBlock
 62
    0
370
   -2
100
AcDbLine
 10
92.375
 20
7.653789711389858e-17
 11
88.75
 21
1.530757942277972e-16
  0
LINE
  5
CB
100
AcDbEntity
  8
Messure+
  6
ByBlock
 62
    0
370
   -2
100
AcDbLine
 10
94.375
 20
13
 11
88.75
 21
13
  0
ENDBLK
  5
6F
330
6D
100
AcDbEntity
  8
0
100
AcDbBlockEnd
  0
BLOCK
  5
71
330
70
100
AcDbEntity
  8
0
100
AcDbBlockBegin
  2
*D15
 70
    1
 10
0
 20
0
  3
*D15
  1

  0
LINE
  5
CC
100
AcDbEntity
  8
Messure+
  6
ByBlock
 62
    0
370
   -2
100
AcDbLine
 10
40
 20
83
 11
40
 21
97
  0
MTEXT
  5
CD
100
AcDbEntity
  8
Messure+
  6
CONTINUOUS
 62
    0
370
   -2
100
AcDbMText
 10
38.125
 20
94.70833333333333
 30
0
 40
2.5
 41
4.166666666666667
 71
    5
 72
    1
  1
4.0
  7
standard
210
0
220
0
230
1
 50
90
 73
    2
 44
1
  0
SOLID
  5
CE
100
AcDbEntity
  8
Messure+
  6
ByBlock
 62
    0
370
   -2
100
AcDbTrace
 10
40
 20
88
 30
0
 11
40.41628465777284
 21
85.5
 31
0
 12
39.58371534222716
 22
85.5
 32
0
 13
39.58371534222716
 23
85.5
 33
0
  0
SOLID
  5
CF
100
AcDbEntity
  8
Messure+
  6
ByBlock
 62
    0
370
   -2
100
AcDbTrace
 10
40
 20
92
 30
0
 11
39.58371534222716
 21
94.5
 31
0
 12
40.41628465777284
 22
94.5
 32
0
 13
40.41628465777284
 23
94.5
 33
0
  0
ENDBLK
  5
72
330
70
100
AcDbEntity
  8
0
100
AcDbBlockEnd
  0
BLOCK
  5
74
330
73
100
AcDbEntity
  8
0
100
AcDbBlockBegin
  2
*D12
 70
    1
 10
0
 20
0
  3
*D12
  1

  0
LINE
  5
D0
100
AcDbEntity
  8
Messure+
  6
ByBlock
 62
    0
370
   -2
100
AcDbLine
 10
79
 20
130
 11
92
 21
130
  0
MTEXT
  5
D1
100
AcDbEntity
  8
Messure+
  6
CONTINUOUS
 62
    0
370
   -2
100
AcDbMText
 10
89.56944444444453
 20
131.875
 30
0
 40
2.5
 41
3.888888888889044
 71
    5
 72
    1
  1
3.0
  7
standard
210
0
220
0
230
1
 50
0
 73
    2
 44
1
  0
SOLID
  5
D2
100
AcDbEntity
  8
Messure+
  6
ByBlock
 62
    0
370
   -2
100
AcDbTrace
 10
84
 20
130
 30
0
 11
81.5
 21
129.5837153422272
 31
0
 12
81.5
 22
130.4162846577728
 32
0
 13
81.5
 23
130.4162846577728
 33
0
  0
SOLID
  5
D3
100
AcDbEntity
  8
Messure+
  6
ByBlock
 62
    0
370
   -2
100
AcDbTrace
 10
87
 20
130
 30
0
 11
89.5
 21
130.4162846577728
 31
0
 12
89.5
 22
129.5837153422272
 32
0
 13
89.5
 23
129.5837153422272
 33
0
  0
LINE
  5
D4
100
AcDbEntity
  8
Messure+
  6
ByBlock
 62
    0
370
   -2
100
AcDbLine
 10
84
 20
125.625
 11
84
 21
131.25
  0
LINE
  5
D5
100
AcDbEntity
  8
Messure+
  6
ByBlock
 62
    0
370
   -2
100
AcDbLine
 10
87
 20
125.625
 11
87
 21
131.25
  0
ENDBLK
  5
75
330
73
100
AcDbEntity
  8
0
100
AcDbBlockEnd
  0
BLOCK
  5
77
330
76
100
AcDbEntity
  8
0
100
AcDbBlockBegin
  2
*D20
 70
    1
 10
0
 20
0
  3
*D20
  1

  0
LINE
  5
D6
100
AcDbEntity
  8
Messure+
  6
ByBlock
 62
    0
370
   -2
100
AcDbLine
 10
93.50000000000001
 20
-3
 11
106.5
 21
-3
  0
MTEXT
  5
D7
100
AcDbEntity
  8
Messure+
  6
CONTINUOUS
 62
    0
370
   -2
100
AcDbMText
 10
100
 20
-1.125
 30
0
 40
2.5
 41
5.277777777777933
 71
    5
 72
    1
  1
13.0
  7
standard
210
0
220
0
230
1
 50
0
 73
    2
 44
1
  0
SOLID
  5
D8
100
AcDbEntity
  8
Messure+
  6
ByBlock
 62
    0
370
   -2
100
AcDbTrace
 10
93.50000000000001
 20
-3
 30
0
 11
96.00000000000001
 21
-2.58371534222716
 31
0
 12
96.00000000000001
 22
-3.416284657772841
 32
0
 13
96.00000000000001
 23
-3.416284657772841
 33
0
  0
SOLID
  5
D9
100
AcDbEntity
  8
Messure+
  6
ByBlock
 62
    0
370
   -2
100
AcDbTrace
 10
106.5
 20
-3
 30
0
 11
104
 21
-3.41628465777284
 31
0
 12
104
 22
-2.58371534222716
 32
0
 13
104
 23
-2.58371534222716
 33
0
  0
LINE
  5
DA
100
AcDbEntity
  8
Messure+
  6
ByBlock
 62
    0
370
   -2
100
AcDbLine
 10
93.50000000000001
 20
-0.6249999999999999
 11
93.50000000000001
 21
-4.25
  0
LINE
  5
DB
100
AcDbEntity
  8
Messure+
  6
ByBlock
 62
    0
370
   -2
100
AcDbLine
 10
106.5
 20
-0.6249999999999999
 11
106.5
 21
-4.25
  0
ENDBLK
  5
78
330
76
100
AcDbEntity
  8
0
100
AcDbBlockEnd
  0
BLOCK
  5
7A
330
79
100
AcDbEntity
  8
0
100
AcDbBlockBegin
  2
*D9
 70
    1
 10
0
 20
0
  3
*D9
  1

  0
LINE
  5
DC
100
AcDbEntity
  8
Messure+
  6
ByBlock
 62
    0
370
   -2
100
AcDbLine
 10
25
 20
158
 11
50
 21
158
  0
MTEXT
  5
DD
100
AcDbEntity
  8
Messure+
  6
CONTINUOUS
 62
    0
370
   -2
100
AcDbMText
 10
37.5
 20
159.875
 30
0
 40
2.5
 41
5.83333333333349
 71
    5
 72
    1
  1
25.0
  7
standard
210
0
220
0
230
1
 50
0
 73
    2
 44
1
  0
SOLID
  5
DE
100
AcDbEntity
  8
Messure+
  6
ByBlock
 62
    0
370
   -2
100
AcDbTrace
 10
25
 20
158
 30
0
 11
27.5
 21
158.4162846577728
 31
0
 12
27.5
 22
157.5837153422272
 32
0
 13
27.5
 23
157.5837153422272
 33
0
  0
SOLID
  5
DF
100
AcDbEntity
  8
Messure+
  6
ByBlock
 62
    0
370
   -2
100
AcDbTrace
 10
50
 20
158
 30
0
 11
47.5
 21
157.5837153422272
 31
0
 12
47.5
 22
158.4162846577728
 32
0
 13
47.5
 23
158.4162846577728
 33
0
  0
LINE
  5
E0
100
AcDbEntity
  8
Messure+
  6
ByBlock
 62
    0
370
   -2
100
AcDbLine
 10
25
 20
147.625
 11
25
 21
159.25
  0
LINE
  5
E1
100
AcDbEntity
  8
Messure+
  6
ByBlock
 62
    0
370
   -2
100
AcDbLine
 10
50
 20
147.625
 11
50
 21
159.25
  0
ENDBLK
  5
7B
330
79
100
AcDbEntity
  8
0
100
AcDbBlockEnd
  0
BLOCK
  5
7D
330
7C
100
AcDbEntity
  8
0
100
AcDbBlockBegin
  2
*D2
 70
    1
 10
0
 20
0
  3
*D2
  1

  0
LINE
  5
E2
100
AcDbEntity
  8
Messure+
  6
ByBlock
 62
    0
370
   -2
100
AcDbLine
 10
30
 20
188
 11
50
 21
188
  0
MTEXT
  5
E3
100
AcDbEntity
  8
Messure+
  6
CONTINUOUS
 62
    0
370
   -2
100
AcDbMText
 10
40
 20
189.875
 30
0
 40
2.5
 41
5.833333333333334
 71
    5
 72
    1
  1
20.0
  7
standard
210
0
220
0
230
1
 50
0
 73
    2
 44
1
  0
SOLID
  5
E4
100
AcDbEntity
  8
Messure+
  6
ByBlock
 62
    0
370
   -2
100
AcDbTrace
 10
30
 20
188
 30
0
 11
32.5
 21
188.4162846577728
 31
0
 12
32.5
 22
187.5837153422272
 32
0
 13
32.5
 23
187.5837153422272
 33
0
  0
SOLID
  5
E5
100
AcDbEntity
  8
Messure+
  6
ByBlock
 62
    0
370
   -2
100
AcDbTrace
 10
50
 20
188
 30
0
 11
47.5
 21
187.5837153422272
 31
0
 12
47.5
 22
188.4162846577728
 32
0
 13
47.5
 23
188.4162846577728
 33
0
  0
LINE
  5
E6
100
AcDbEntity
  8
Messure+
  6
ByBlock
 62
    0
370
   -2
100
AcDbLine
 10
30
 20
185.625
 11
30
 21
189.25
  0
LINE
  5
E7
100
AcDbEntity
  8
Messure+
  6
ByBlock
 62
    0
370
   -2
100
AcDbLine
 10
50
 20
185.625
 11
50
 21
189.25
  0
ENDBLK
  5
7E
330
7C
100
AcDbEntity
  8
0
100
AcDbBlockEnd
  0
BLOCK
  5
80
330
7F
100
AcDbEntity
  8
0
100
AcDbBlockBegin
  2
*D14
 70
    1
 10
0
 20
0
  3
*D14
  1

  0
LINE
  5
E8
100
AcDbEntity
  8
Messure+
  6
ByBlock
 62
    0
370
   -2
100
AcDbLine
 10
93
 20
60
 11
107
 21
60
  0
MTEXT
  5
E9
100
AcDbEntity
  8
Messure+
  6
CONTINUOUS
 62
    0
370
   -2
100
AcDbMText
 10
104.7083333333333
 20
61.875
 30
0
 40
2.5
 41
4.166666666666667
 71
    5
 72
    1
  1
4.0
  7
standard
210
0
220
0
230
1
 50
0
 73
    2
 44
1
  0
SOLID
  5
EA
100
AcDbEntity
  8
Messure+
  6
ByBlock
 62
    0
370
   -2
100
AcDbTrace
 10
98
 20
60
 30
0
 11
95.5
 21
59.58371534222716
 31
0
 12
95.5
 22
60.41628465777284
 32
0
 13
95.5
 23
60.41628465777284
 33
0
  0
SOLID
  5
EB
100
AcDbEntity
  8
Messure+
  6
ByBlock
 62
    0
370
   -2
100
AcDbTrace
 10
102
 20
60
 30
0
 11
104.5
 21
60.41628465777284
 31
0
 12
104.5
 22
59.58371534222716
 32
0
 13
104.5
 23
59.58371534222716
 33
0
  0
ENDBLK
  5
81
330
7F
100
AcDbEntity
  8
0
100
AcDbBlockEnd
  0
BLOCK
  5
83
330
82
100
AcDbEntity
  8
0
100
AcDbBlockBegin
  2
*D18
 70
    1
 10
0
 20
0
  3
*D18
  1

  0
LINE
  5
EC
100
AcDbEntity
  8
Messure+
  6
ByBlock
 62
    0
370
   -2
100
AcDbLine
 10
142
 20
18
 11
128
 21
18
  0
MTEXT
  5
ED
100
AcDbEntity
  8
Messure+
  6
CONTINUOUS
 62
    0
370
   -2
100
AcDbMText
 10
139.7083333333333
 20
19.875
 30
0
 40
2.5
 41
4.166666666666667
 71
    5
 72
    1
  1
4.0
  7
standard
210
0
220
0
230
1
 50
0
 73
    2
 44
1
  0
SOLID
  5
EE
100
AcDbEntity
  8
Messure+
  6
ByBlock
 62
    0
370
   -2
100
AcDbTrace
 10
137
 20
18
 30
0
 11
139.5
 21
18.41628465777284
 31
0
 12
139.5
 22
17.58371534222716
 32
0
 13
139.5
 23
17.58371534222716
 33
0
  0
SOLID
  5
EF
100
AcDbEntity
  8
Messure+
  6
ByBlock
 62
    0
370
   -2
100
AcDbTrace
 10
133
 20
18
 30
0
 11
130.5
 21
17.58371534222716
 31
0
 12
130.5
 22
18.41628465777284
 32
0
 13
130.5
 23
18.41628465777284
 33
0
  0
ENDBLK
  5
84
330
82
100
AcDbEntity
  8
0
100
AcDbBlockEnd
  0
BLOCK
  5
86
330
85
100
AcDbEntity
  8
0
100
AcDbBlockBegin
  2
*D1
 70
    1
 10
0
 20
0
  3
*D1
  1

  0
LINE
  5
F0
100
AcDbEntity
  8
Messure+
  6
ByBlock
 62
    0
370
   -2
100
AcDbLine
 10
25
 20
185
 11
25
 21
163
  0
MTEXT
  5
F1
100
AcDbEntity
  8
Messure+
  6
CONTINUOUS
 62
    0
370
   -2
100
AcDbMText
 10
23.125
 20
174
 30
0
 40
2.5
 41
5.833333333333334
 71
    5
 72
    1
  1
22.0
  7
standard
210
0
220
0
230
1
 50
90
 73
    2
 44
1
  0
SOLID
  5
F2
100
AcDbEntity
  8
Messure+
  6
ByBlock
 62
    0
370
   -2
100
AcDbTrace
 10
25
 20
185
 30
0
 11
25.41628465777284
 21
182.5
 31
0
 12
24.58371534222716
 22
182.5
 32
0
 13
24.58371534222716
 23
182.5
 33
0
  0
SOLID
  5
F3
100
AcDbEntity
  8
Messure+
  6
ByBlock
 62
    0
370
   -2
100
AcDbTrace
 10
25
 20
163
 30
0
 11
24.58371534222716
 21
165.5
 31
0
 12
25.41628465777284
 22
165.5
 32
0
 13
25.41628465777284
 23
165.5
 33
0
  0
LINE
  5
F4
100
AcDbEntity
  8
Messure+
  6
ByBlock
 62
    0
370
   -2
100
AcDbLine
 10
29.375
 20
185
 11
23.75
 21
185
  0
LINE
  5
F5
100
AcDbEntity
  8
Messure+
  6
ByBlock
 62
    0
370
   -2
100
AcDbLine
 10
39.375
 20
163
 11
23.75
 21
163
  0
ENDBLK
  5
87
330
85
100
AcDbEntity
  8
0
100
AcDbBlockEnd
  0
BLOCK
  5
89
330
88
100
AcDbEntity
  8
0
100
AcDbBlockBegin
  2
*D5
 70
    1
 10
0
 20
0
  3
*D5
  1

  0
LINE
  5
F6
100
AcDbEntity
  8
Messure+
  6
ByBlock
 62
    0
370
   -2
100
AcDbLine
 10
15.00000000000001
 20
150
 11
15
 21
1.758593271006248e-15
  0
MTEXT
  5
F7
100
AcDbEntity
  8
Messure+
  6
CONTINUOUS
 62
    0
370
   -2
100
AcDbMText
 10
13.125
 20
75
 30
0
 40
2.5
 41
7.222222222222378
 71
    5
 72
    1
  1
150.0
  7
standard
210
0
220
0
230
1
 50
90
 73
    2
 44
1
  0
SOLID
  5
F8
100
AcDbEntity
  8
Messure+
  6
ByBlock
 62
    0
370
   -2
100
AcDbTrace
 10
15.00000000000001
 20
150
 30
0
 11
15.41628465777285
 21
147.5
 31
0
 12
14.58371534222717
 22
147.5
 32
0
 13
14.58371534222717
 23
147.5
 33
0
  0
SOLID
  5
F9
100
AcDbEntity
  8
Messure+
  6
ByBlock
 62
    0
370
   -2
100
AcDbTrace
 10
15
 20
1.758593271006248e-15
 30
0
 11
14.58371534222716
 21
2.500000000000002
 31
0
 12
15.41628465777284
 22
2.500000000000002
 32
0
 13
15.41628465777284
 23
2.500000000000002
 33
0
  0
LINE
  5
FA
100
AcDbEntity
  8
Messure+
  6
ByBlock
 62
    0
370
   -2
100
AcDbLine
 10
28.375
 20
150
 11
13.75000000000001
 21
150
  0
LINE
  5
FB
100
AcDbEntity
  8
Messure+
  6
ByBlock
 62
    0
370
   -2
100
AcDbLine
 10
47.375
 20
7.653789711389858e-17
 11
13.75
 21
1.911669065234045e-15
  0
ENDBLK
  5
8A
330
88
100
AcDbEntity
  8
0
100
AcDbBlockEnd
  0
BLOCK
  5
8C
330
8B
100
AcDbEntity
  8
0
100
AcDbBlockBegin
  2
*D8
 70
    1
 10
0
 20
0
  3
*D8
  1

  0
LINE
  5
FC
100
AcDbEntity
  8
Messure+
  6
ByBlock
 62
    0
370
   -2
100
AcDbLine
 10
80
 20
70
 11
80
 21
50
  0
MTEXT
  5
FD
100
AcDbEntity
  8
Messure+
  6
CONTINUOUS
 62
    0
370
   -2
100
AcDbMText
 10
78.125
 20
60
 30
0
 40
2.5
 41
5.833333333333334
 71
    5
 72
    1
  1
20.0
  7
standard
210
0
220
0
230
1
 50
90
 73
    2
 44
1
  0
SOLID
  5
FE
100
AcDbEntity
  8
Messure+
  6
ByBlock
 62
    0
370
   -2
100
AcDbTrace
 10
80
 20
70
 30
0
 11
80.41628465777283
 21
67.5
 31
0
 12
79.58371534222717
 22
67.5
 32
0
 13
79.58371534222717
 23
67.5
 33
0
  0
SOLID
  5
FF
100
AcDbEntity
  8
Messure+
  6
ByBlock
 62
    0
370
   -2
100
AcDbTrace
 10
80
 20
50
 30
0
 11
79.58371534222717
 21
52.5
 31
0
 12
80.41628465777283
 22
52.5
 32
0
 13
80.41628465777283
 23
52.5
 33
0
  0
LINE
  5
100
100
AcDbEntity
  8
Messure+
  6
ByBlock
 62
    0
370
   -2
100
AcDbLine
 10
79.375
 20
70
 11
78.75
 21
70
  0
LINE
  5
101
100
AcDbEntity
  8
Messure+
  6
ByBlock
 62
    0
370
   -2
100
AcDbLine
 10
79.375
 20
50
 11
78.75
 21
50
  0
ENDBLK
  5
8D
330
8B
100
AcDbEntity
  8
0
100
AcDbBlockEnd
  0
ENDSEC
  0
SECTION
  2
ENTITIES
  0
ARC
  5
102
100
AcDbEntity
  8
0
  6
ByLayer
 62
  256
370
   -1
100
AcDbCircle
 10
60
 20
50
 40
10
100
AcDbArc
 50
180
 51
270
  0
LINE
  5
103
100
AcDbEntity
  8
0
  6
ByLayer
 62
  256
370
   -1
100
AcDbLine
 10
60.00000189177729
 20
40
 11
140
 21
40
  0
ARC
  5
104
100
AcDbEntity
  8
0
  6
ByLayer
 62
  256
370
   -1
100
AcDbCircle
 10
47
 20
147
 40
3
100
AcDbArc
 50
0
 51
90
  0
LINE
  5
105
100
AcDbEntity
  8
0
  6
ByLayer
 62
  256
370
   -1
100
AcDbLine
 10
50
 20
147
 11
50
 21
49.99999999999997
  0
ARC
  5
106
100
AcDbEntity
  8
0
  6
ByLayer
 62
  256
370
   -1
100
AcDbCircle
 10
140
 20
50
 40
10
100
AcDbArc
 50
270
 51
0
  0
LINE
  5
107
100
AcDbEntity
  8
0
  6
ByLayer
 62
  256
370
   -1
100
AcDbLine
 10
106.5
 20
-2.775557561562891e-17
 11
106.5
 21
13
  0
LINE
  5
108
100
AcDbEntity
  8
0
  6
ByLayer
 62
  256
370
   -1
100
AcDbLine
 10
106.5
 20
13
 11
93.5
 21
13
  0
LINE
  5
109
100
AcDbEntity
  8
0
  6
ByLayer
 62
  256
370
   -1
100
AcDbLine
 10
93.5
 20
13
 11
93.5
 21
-2.775557561562891e-17
  0
LWPOLYLINE
  5
10A
100
AcDbEntity
  8
Help
  6
ByLayer
 62
  256
370
   -1
100
AcDbPolyline
 90
    4
 70
    1
 43
0
 10
55
 20
13
 10
145
 20
13
 10
145
 20
23
 10
55
 20
23
  0
LINE
  5
10B
100
AcDbEntity
  8
0
  6
ByLayer
 62
  256
370
   -1
100
AcDbLine
 10
55
 20
70
 11
145
 21
70
  0
LINE
  5
10C
100
AcDbEntity
  8
0
  6
ByLayer
 62
  256
370
   -1
100
AcDbLine
 10
145
 20
70
 11
145
 21
60
  0
LINE
  5
10D
100
AcDbEntity
  8
0
  6
ByLayer
 62
  256
370
   -1
100
AcDbLine
 10
145
 20
60
 11
125
 21
50
  0
LINE
  5
10E
100
AcDbEntity
  8
0
  6
ByLayer
 62
  256
370
   -1
100
AcDbLine
 10
125
 20
50
 11
75
 21
50
  0
LINE
  5
10F
100
AcDbEntity
  8
0
  6
ByLayer
 62
  256
370
   -1
100
AcDbLine
 10
75
 20
50
 11
55
 21
60
  0
LINE
  5
110
100
AcDbEntity
  8
0
  6
ByLayer
 62
  256
370
   -1
100
AcDbLine
 10
55
 20
60
 11
55
 21
70
  0
CIRCLE
  5
111
100
AcDbEntity
  8
0
  6
ByLayer
 62
  256
370
   -1
100
AcDbCircle
 10
100
 20
60
 40
2
  0
CIRCLE
  5
112
100
AcDbEntity
  8
0
  6
ByLayer
 62
  256
370
   -1
100
AcDbCircle
 10
65
 20
18
 40
2
  0
CIRCLE
  5
113
100
AcDbEntity
  8
0
  6
ByLayer
 62
  256
370
   -1
100
AcDbCircle
 10
135
 20
18
 40
2
  0
LINE
  5
114
100
AcDbEntity
  8
Help
  6
ByLayer
 62
  256
370
   -1
100
AcDbLine
 10
134.4
 20
18
 11
135.6
 21
18
  0
LINE
  5
115
100
AcDbEntity
  8
Help
  6
ByLayer
 62
  256
370
   -1
100
AcDbLine
 10
135
 20
17.4
 11
135
 21
18.6
  0
LINE
  5
116
100
AcDbEntity
  8
Help
  6
ByLayer
 62
  256
370
   -1
100
AcDbLine
 10
64.40000000000001
 20
18
 11
65.59999999999999
 21
18
  0
LINE
  5
117
100
AcDbEntity
  8
Help
  6
ByLayer
 62
  256
370
   -1
100
AcDbLine
 10
65
 20
17.4
 11
65
 21
18.6
  0
LINE
  5
118
100
AcDbEntity
  8
Help
  6
ByLayer
 62
  256
370
   -1
100
AcDbLine
 10
99.40000000000001
 20
60
 11
100.6
 21
60
  0
LINE
  5
119
100
AcDbEntity
  8
Help
  6
ByLayer
 62
  256
370
   -1
100
AcDbLine
 10
100
 20
59.4
 11
100
 21
60.6
  0
LWPOLYLINE
  5
11A
100
AcDbEntity
  8
Help
  6
ByLayer
 62
  256
370
   -1
100
AcDbPolyline
 90
    4
 70
    1
 43
0
 10
45
 20
125
 10
35
 20
125
 10
35
 20
80
 10
45
 20
80
  0
CIRCLE
  5
11B
100
AcDbEntity
  8
0
  6
ByLayer
 62
  256
370
   -1
100
AcDbCircle
 10
40
 20
90
 40
2
  0
CIRCLE
  5
11C
100
AcDbEntity
  8
0
  6
ByLayer
 62
  256
370
   -1
100
AcDbCircle
 10
40
 20
115
 40
2
  0
LINE
  5
11D
100
AcDbEntity
  8
0
  6
ByLayer
 62
  256
370
   -1
100
AcDbLine
 10
90
 20
125
 11
90
 21
100
  0
LINE
  5
11E
100
AcDbEntity
  8
0
  6
ByLayer
 62
  256
370
   -1
100
AcDbLine
 10
90
 20
100
 11
70
 21
80
  0
LINE
  5
11F
100
AcDbEntity
  8
Help
  6
ByLayer
 62
  256
370
   -1
100
AcDbLine
 10
87
 20
125
 11
87
 21
105
  0
LINE
  5
120
100
AcDbEntity
  8
Help
  6
ByLayer
 62
  256
370
   -1
100
AcDbLine
 10
87
 20
105
 11
84
 21
105
  0
LINE
  5
121
100
AcDbEntity
  8
Help
  6
ByLayer
 62
  256
370
   -1
100
AcDbLine
 10
84
 20
105
 11
84
 21
125
  0
LINE
  5
122
100
AcDbEntity
  8
0
  6
ByLayer
 62
  256
370
   -1
100
AcDbLine
 10
110
 20
126
 11
110
 21
101
  0
LINE
  5
123
100
AcDbEntity
  8
0
  6
ByLayer
 62
  256
370
   -1
100
AcDbLine
 10
110
 20
101
 11
130
 21
81
  0
LINE
  5
124
100
AcDbEntity
  8
Help
  6
ByLayer
 62
  256
370
   -1
100
AcDbLine
 10
113
 20
126
 11
113
 21
106
  0
LINE
  5
125
100
AcDbEntity
  8
Help
  6
ByLayer
 62
  256
370
   -1
100
AcDbLine
 10
113
 20
106
 11
116
 21
106
  0
LINE
  5
126
100
AcDbEntity
  8
Help
  6
ByLayer
 62
  256
370
   -1
100
AcDbLine
 10
116
 20
106
 11
116
 21
126
  0
LINE
  5
127
100
AcDbEntity
  8
0
  6
ByLayer
 62
  256
370
   -1
100
AcDbLine
 10
140
 20
126
 11
140
 21
81
  0
LINE
  5
128
100
AcDbEntity
  8
0
  6
ByLayer
 62
  256
370
   -1
100
AcDbLine
 10
60
 20
125
 11
60
 21
80
  0
LINE
  5
129
100
AcDbEntity
  8
0
  6
ByLayer
 62
  256
370
   -1
100
AcDbLine
 10
60
 20
80
 11
70
 21
80
  0
LINE
  5
12A
100
AcDbEntity
  8
0
  6
ByLayer
 62
  256
370
   -1
100
AcDbLine
 10
90
 20
125
 11
60
 21
125
  0
LINE
  5
12B
100
AcDbEntity
  8
0
  6
ByLayer
 62
  256
370
   -1
100
AcDbLine
 10
110
 20
126
 11
140
 21
126
  0
LINE
  5
12C
100
AcDbEntity
  8
0
  6
ByLayer
 62
  256
370
   -1
100
AcDbLine
 10
140
 20
81
 11
130
 21
81
  0
LINE
  5
12D
100
AcDbEntity
  8
Help
  6
ByLayer
 62
  256
370
   -1
100
AcDbLine
 10
140
 20
90
 11
130
 21
90
  0
LINE
  5
12E
100
AcDbEntity
  8
Help
  6
ByLayer
 62
  256
370
   -1
100
AcDbLine
 10
130
 20
90
 11
130
 21
92
  0
LINE
  5
12F
100
AcDbEntity
  8
Help
  6
ByLayer
 62
  256
370
   -1
100
AcDbLine
 10
130
 20
92
 11
140
 21
92
  0
LINE
  5
130
100
AcDbEntity
  8
Help
  6
ByLayer
 62
  256
370
   -1
100
AcDbLine
 10
140
 20
117
 11
130
 21
117
  0
LINE
  5
131
100
AcDbEntity
  8
Help
  6
ByLayer
 62
  256
370
   -1
100
AcDbLine
 10
130
 20
117
 11
130
 21
115
  0
LINE
  5
132
100
AcDbEntity
  8
Help
  6
ByLayer
 62
  256
370
   -1
100
AcDbLine
 10
130
 20
115
 11
140
 21
115
  0
LINE
  5
133
100
AcDbEntity
  8
Help
  6
ByLayer
 62
  256
370
   -1
100
AcDbLine
 10
60
 20
116
 11
70
 21
116
  0
LINE
  5
134
100
AcDbEntity
  8
Help
  6
ByLayer
 62
  256
370
   -1
100
AcDbLine
 10
70
 20
116
 11
70
 21
114
  0
LINE
  5
135
100
AcDbEntity
  8
Help
  6
ByLayer
 62
  256
370
   -1
100
AcDbLine
 10
70
 20
114
 11
60
 21
114
  0
LINE
  5
136
100
AcDbEntity
  8
Help
  6
ByLayer
 62
  256
370
   -1
100
AcDbLine
 10
60
 20
91
 11
70
 21
91
  0
LINE
  5
137
100
AcDbEntity
  8
Help
  6
ByLayer
 62
  256
370
   -1
100
AcDbLine
 10
70
 20
91
 11
70
 21
89
  0
LINE
  5
138
100
AcDbEntity
  8
Help
  6
ByLayer
 62
  256
370
   -1
100
AcDbLine
 10
70
 20
89
 11
60
 21
89
  0
LINE
  5
139
100
AcDbEntity
  8
Help
  6
ByLayer
 62
  256
370
   -1
100
AcDbLine
 10
39.4
 20
115
 11
40.6
 21
115
  0
LINE
  5
13A
100
AcDbEntity
  8
Help
  6
ByLayer
 62
  256
370
   -1
100
AcDbLine
 10
40
 20
114.4
 11
40
 21
115.6
  0
LINE
  5
13B
100
AcDbEntity
  8
Help
  6
ByLayer
 62
  256
370
   -1
100
AcDbLine
 10
39.4
 20
90
 11
40.6
 21
90
  0
LINE
  5
13C
100
AcDbEntity
  8
Help
  6
ByLayer
 62
  256
370
   -1
100
AcDbLine
 10
40
 20
89.40000000000001
 11
40
 21
90.59999999999999
  0
ARC
  5
13D
100
AcDbEntity
  8
0
  6
ByLayer
 62
  256
370
   -1
100
AcDbCircle
 10
37.5
 20
132.5
 40
2.5
100
AcDbArc
 50
180
 51
0
  0
LINE
  5
13E
100
AcDbEntity
  8
0
  6
ByLayer
 62
  256
370
   -1
100
AcDbLine
 10
35
 20
150
 11
35
 21
132.5
  0
LINE
  5
13F
100
AcDbEntity
  8
Help
  6
ByLayer
 62
  256
370
   -1
100
AcDbLine
 10
36.75
 20
132.5
 11
38.25
 21
132.5
  0
LINE
  5
140
100
AcDbEntity
  8
Help
  6
ByLayer
 62
  256
370
   -1
100
AcDbLine
 10
37.5
 20
131.75
 11
37.5
 21
133.25
  0
LINE
  5
141
100
AcDbEntity
  8
0
  6
CONTINUOUS
 62
  256
370
   25
100
AcDbLine
 10
40
 20
150
 11
40
 21
132.5
  0
LINE
  5
142
100
AcDbEntity
  8
0
  6
ByLayer
 62
  256
370
   -1
100
AcDbLine
 10
40
 20
150
 11
47.00000000000002
 21
150
  0
LINE
  5
143
100
AcDbEntity
  8
Help
  6
ByLayer
 62
  256
370
   -1
100
AcDbLine
 10
40
 20
145
 11
50
 21
145
  0
LINE
  5
144
100
AcDbEntity
  8
Help
  6
ByLayer
 62
  256
370
   -1
100
AcDbLine
 10
40
 20
142
 11
50
 21
142
  0
ARC
  5
145
100
AcDbEntity
  8
0
  6
ByLayer
 62
  256
370
   -1
100
AcDbCircle
 10
29
 20
146
 40
4.001249804748512
100
AcDbArc
 50
90
 51
180
  0
LINE
  5
146
100
AcDbEntity
  8
0
  6
ByLayer
 62
  256
370
   -1
100
AcDbLine
 10
35
 20
150
 11
29.10000000002583
 21
150
  0
LINE
  5
147
100
AcDbEntity
  8
Help
  6
ByLayer
 62
  256
370
   -1
100
AcDbLine
 10
35
 20
145
 11
25
 21
145
  0
LINE
  5
148
100
AcDbEntity
  8
Help
  6
ByLayer
 62
  256
370
   -1
100
AcDbLine
 10
25
 20
142
 11
35
 21
142
  0
ARC
  5
149
100
AcDbEntity
  8
0
  6
ByLayer
 62
  256
370
   -1
100
AcDbCircle
 10
45
 20
20
 40
20
100
AcDbArc
 50
180
 51
270
  0
LINE
  5
14A
100
AcDbEntity
  8
0
  6
ByLayer
 62
  256
370
   -1
100
AcDbLine
 10
45.00000038022927
 20
0
 11
93.5
 21
1.289127543537967e-14
  0
LINE
  5
14B
100
AcDbEntity
  8
0
  6
ByLayer
 62
  256
370
   -1
100
AcDbLine
 10
25.00000000000001
 20
145.9000000000522
 11
25
 21
20.00000061406737
  0
ARC
  5
14C
100
AcDbEntity
  8
0
  6
ByLayer
 62
  256
370
   -1
100
AcDbCircle
 10
153
 20
147
 40
3
100
AcDbArc
 50
90
 51
180
  0
LINE
  5
14D
100
AcDbEntity
  8
0
  6
ByLayer
 62
  256
370
   -1
100
AcDbLine
 10
150
 20
147
 11
150
 21
49.99999999999997
  0
LWPOLYLINE
  5
14E
100
AcDbEntity
  8
Help
  6
ByLayer
 62
  256
370
   -1
100
AcDbPolyline
 90
    4
 70
    1
 43
0
 10
155
 20
125
 10
165
 20
125
 10
165
 20
80
 10
155
 20
80
  0
CIRCLE
  5
14F
100
AcDbEntity
  8
0
  6
ByLayer
 62
  256
370
   -1
100
AcDbCircle
 10
160
 20
90
 40
2
  0
CIRCLE
  5
150
100
AcDbEntity
  8
0
  6
ByLayer
 62
  256
370
   -1
100
AcDbCircle
 10
160
 20
115
 40
2
  0
LINE
  5
151
100
AcDbEntity
  8
Help
  6
ByLayer
 62
  256
370
   -1
100
AcDbLine
 10
160.6
 20
115
 11
159.4
 21
115
  0
LINE
  5
152
100
AcDbEntity
  8
Help
  6
ByLayer
 62
  256
370
   -1
100
AcDbLine
 10
160
 20
114.4
 11
160
 21
115.6
  0
LINE
  5
153
100
AcDbEntity
  8
Help
  6
ByLayer
 62
  256
370
   -1
100
AcDbLine
 10
160.6
 20
90
 11
159.4
 21
90
  0
LINE
  5
154
100
AcDbEntity
  8
Help
  6
ByLayer
 62
  256
370
   -1
100
AcDbLine
 10
160
 20
89.40000000000001
 11
160
 21
90.59999999999999
  0
ARC
  5
155
100
AcDbEntity
  8
0
  6
ByLayer
 62
  256
370
   -1
100
AcDbCircle
 10
162.5
 20
132.5
 40
2.5
100
AcDbArc
 50
180
 51
0
  0
LINE
  5
156
100
AcDbEntity
  8
0
  6
ByLayer
 62
  256
370
   -1
100
AcDbLine
 10
165
 20
150
 11
165
 21
132.5
  0
LINE
  5
157
100
AcDbEntity
  8
Help
  6
ByLayer
 62
  256
370
   -1
100
AcDbLine
 10
163.25
 20
132.5
 11
161.75
 21
132.5
  0
LINE
  5
158
100
AcDbEntity
  8
Help
  6
ByLayer
 62
  256
370
   -1
100
AcDbLine
 10
162.5
 20
131.75
 11
162.5
 21
133.25
  0
LINE
  5
159
100
AcDbEntity
  8
0
  6
CONTINUOUS
 62
  256
370
   25
100
AcDbLine
 10
160
 20
150
 11
160
 21
132.5
  0
LINE
  5
15A
100
AcDbEntity
  8
0
  6
ByLayer
 62
  256
370
   -1
100
AcDbLine
 10
160
 20
150
 11
153
 21
150
  0
LINE
  5
15B
100
AcDbEntity
  8
Help
  6
ByLayer
 62
  256
370
   -1
100
AcDbLine
 10
160
 20
145
 11
150
 21
145
  0
LINE
  5
15C
100
AcDbEntity
  8
Help
  6
ByLayer
 62
  256
370
   -1
100
AcDbLine
 10
160
 20
142
 11
150
 21
142
  0
ARC
  5
15D
100
AcDbEntity
  8
0
  6
ByLayer
 62
  256
370
   -1
100
AcDbCircle
 10
171
 20
146
 40
4.001249804748512
100
AcDbArc
 50
0
 51
90
  0
LINE
  5
15E
100
AcDbEntity
  8
0
  6
ByLayer
 62
  256
370
   -1
100
AcDbLine
 10
165
 20
150
 11
170.8999999999742
 21
150
  0
LINE
  5
15F
100
AcDbEntity
  8
Help
  6
ByLayer
 62
  256
370
   -1
100
AcDbLine
 10
165
 20
145
 11
175
 21
145
  0
LINE
  5
160
100
AcDbEntity
  8
Help
  6
ByLayer
 62
  256
370
   -1
100
AcDbLine
 10
175
 20
142
 11
165
 21
142
  0
ARC
  5
161
100
AcDbEntity
  8
0
  6
ByLayer
 62
  256
370
   -1
100
AcDbCircle
 10
155
 20
20
 40
20
100
AcDbArc
 50
270
 51
0
  0
LINE
  5
162
100
AcDbEntity
  8
0
  6
ByLayer
 62
  256
370
   -1
100
AcDbLine
 10
175
 20
145.9000000000522
 11
175
 21
20.00000061406737
  0
LINE
  5
163
100
AcDbEntity
  8
0
  6
ByLayer
 62
  256
370
   -1
100
AcDbLine
 10
106.5
 20
-2.775557561562891e-17
 11
154.9999979099659
 21
0
  0
LWPOLYLINE
  5
164
100
AcDbEntity
  8
0
  6
ByLayer
 62
  256
370
   -1
100
AcDbPolyline
 90
    4
 70
    1
 43
0
 10
25
 20
193
 10
55
 20
193
 10
55
 20
203
 10
25
 20
203
  0
LWPOLYLINE
  5
165
100
AcDbEntity
  8
0
  6
ByLayer
 62
  256
370
   -1
100
AcDbPolyline
 90
    4
 70
    1
 43
0
 10
65
 20
193
 10
95
 20
193
 10
95
 20
203
 10
65
 20
203
  0
ARC
  5
166
100
AcDbEntity
  8
0
  6
ByLayer
 62
  256
370
   -1
100
AcDbCircle
 10
40
 20
173.5
 40
10
100
AcDbArc
 50
180
 51
0
  0
CIRCLE
  5
167
100
AcDbEntity
  8
0
  6
ByLayer
 62
  256
370
   -1
100
AcDbCircle
 10
40
 20
173.5
 40
4
  0
CIRCLE
  5
168
100
AcDbEntity
  8
Help
  6
ByLayer
 62
  256
370
   -1
100
AcDbCircle
 10
40
 20
173.5
 40
1.5
  0
LINE
  5
169
100
AcDbEntity
  8
0
  6
ByLayer
 62
  256
370
   -1
100
AcDbLine
 10
30
 20
173.5
 11
30
 21
185
  0
LINE
  5
16A
100
AcDbEntity
  8
0
  6
ByLayer
 62
  256
370
   -1
100
AcDbLine
 10
30
 20
185
 11
50
 21
185
  0
LINE
  5
16B
100
AcDbEntity
  8
0
  6
ByLayer
 62
  256
370
   -1
100
AcDbLine
 10
50
 20
185
 11
50
 21
173.5
  0
ARC
  5
16C
100
AcDbEntity
  8
0
  6
ByLayer
 62
  256
370
   -1
100
AcDbCircle
 10
80
 20
173.5
 40
10
100
AcDbArc
 50
180
 51
0
  0
CIRCLE
  5
16D
100
AcDbEntity
  8
0
  6
ByLayer
 62
  256
370
   -1
100
AcDbCircle
 10
80
 20
173.5
 40
4
  0
CIRCLE
  5
16E
100
AcDbEntity
  8
Help
  6
ByLayer
 62
  256
370
   -1
100
AcDbCircle
 10
80
 20
173.5
 40
1.5
  0
LINE
  5
16F
100
AcDbEntity
  8
0
  6
ByLayer
 62
  256
370
   -1
100
AcDbLine
 10
70
 20
173.5
 11
70
 21
185
  0
LINE
  5
170
100
AcDbEntity
  8
0
  6
ByLayer
 62
  256
370
   -1
100
AcDbLine
 10
70
 20
185
 11
90
 21
185
  0
LINE
  5
171
100
AcDbEntity
  8
0
  6
ByLayer
 62
  256
370
   -1
100
AcDbLine
 10
90
 20
185
 11
90
 21
173.5
  0
LWPOLYLINE
  5
172
100
AcDbEntity
  8
0
  6
ByLayer
 62
  256
370
   -1
100
AcDbPolyline
 90
    4
 70
    1
 43
0
 10
105
 20
193
 10
135
 20
193
 10
135
 20
203
 10
105
 20
203
  0
LWPOLYLINE
  5
173
100
AcDbEntity
  8
0
  6
ByLayer
 62
  256
370
   -1
100
AcDbPolyline
 90
    4
 70
    1
 43
0
 10
145
 20
193
 10
175
 20
193
 10
175
 20
203
 10
145
 20
203
  0
ARC
  5
174
100
AcDbEntity
  8
0
  6
ByLayer
 62
  256
370
   -1
100
AcDbCircle
 10
120
 20
173.5
 40
10
100
AcDbArc
 50
180
 51
0
  0
CIRCLE
  5
175
100
AcDbEntity
  8
0
  6
ByLayer
 62
  256
370
   -1
100
AcDbCircle
 10
120
 20
173.5
 40
4
  0
CIRCLE
  5
176
100
AcDbEntity
  8
Help
  6
ByLayer
 62
  256
370
   -1
100
AcDbCircle
 10
120
 20
173.5
 40
1.5
  0
LINE
  5
177
100
AcDbEntity
  8
0
  6
ByLayer
 62
  256
370
   -1
100
AcDbLine
 10
110
 20
173.5
 11
110
 21
185
  0
LINE
  5
178
100
AcDbEntity
  8
0
  6
ByLayer
 62
  256
370
   -1
100
AcDbLine
 10
110
 20
185
 11
130
 21
185
  0
LINE
  5
179
100
AcDbEntity
  8
0
  6
ByLayer
 62
  256
370
   -1
100
AcDbLine
 10
130
 20
185
 11
130
 21
173.5
  0
ARC
  5
17A
100
AcDbEntity
  8
0
  6
ByLayer
 62
  256
370
   -1
100
AcDbCircle
 10
160
 20
173.5
 40
10
100
AcDbArc
 50
180
 51
0
  0
CIRCLE
  5
17B
100
AcDbEntity
  8
0
  6
ByLayer
 62
  256
370
   -1
100
AcDbCircle
 10
160
 20
173.5
 40
4
  0
CIRCLE
  5
17C
100
AcDbEntity
  8
Help
  6
ByLayer
 62
  256
370
   -1
100
AcDbCircle
 10
160
 20
173.5
 40
1.5
  0
LINE
  5
17D
100
AcDbEntity
  8
0
  6
ByLayer
 62
  256
370
   -1
100
AcDbLine
 10
150
 20
173.5
 11
150
 21
185
  0
LINE
  5
17E
100
AcDbEntity
  8
0
  6
ByLayer
 62
  256
370
   -1
100
AcDbLine
 10
150
 20
185
 11
170
 21
185
  0
LINE
  5
17F
100
AcDbEntity
  8
0
  6
ByLayer
 62
  256
370
   -1
100
AcDbLine
 10
170
 20
185
 11
170
 21
173.5
  0
LINE
  5
180
100
AcDbEntity
  8
Help
  6
ByLayer
 62
  256
370
   -1
100
AcDbLine
 10
39.55
 20
173.5
 11
40.45
 21
173.5
  0
LINE
  5
181
100
AcDbEntity
  8
Help
  6
ByLayer
 62
  256
370
   -1
100
AcDbLine
 10
40
 20
173.05
 11
40
 21
173.95
  0
LINE
  5
182
100
AcDbEntity
  8
Help
  6
ByLayer
 62
  256
370
   -1
100
AcDbLine
 10
79.55
 20
173.5
 11
80.45
 21
173.5
  0
LINE
  5
183
100
AcDbEntity
  8
Help
  6
ByLayer
 62
  256
370
   -1
100
AcDbLine
 10
80
 20
173.05
 11
80
 21
173.95
  0
LINE
  5
184
100
AcDbEntity
  8
Help
  6
ByLayer
 62
  256
370
   -1
100
AcDbLine
 10
119.55
 20
173.5
 11
120.45
 21
173.5
  0
LINE
  5
185
100
AcDbEntity
  8
Help
  6
ByLayer
 62
  256
370
   -1
100
AcDbLine
 10
120
 20
173.05
 11
120
 21
173.95
  0
LINE
  5
186
100
AcDbEntity
  8
Help
  6
ByLayer
 62
  256
370
   -1
100
AcDbLine
 10
159.55
 20
173.5
 11
160.45
 21
173.5
  0
LINE
  5
187
100
AcDbEntity
  8
Help
  6
ByLayer
 62
  256
370
   -1
100
AcDbLine
 10
160
 20
173.05
 11
160
 21
173.95
  0
DIMENSION
  5
188
100
AcDbEntity
  8
Messure+
  6
ByLayer
 62
  256
370
   -1
100
AcDbDimension
  2
*D1
 10
25
 20
163
 30
0
 11
23.125
 21
174
 31
0
 70
   32
 71
    5
 72
    0
  3
Standard
 53
0
210
0
220
0
230
1
100
AcDbAlignedDimension
 13
30
 23
185
 33
0
 14
40
 24
163
 34
0
 50
90
100
AcDbRotatedDimension
  0
DIMENSION
  5
189
100
AcDbEntity
  8
Messure+
  6
ByLayer
 62
  256
370
   -1
100
AcDbDimension
  2
*D2
 10
50
 20
188
 30
0
 11
40
 21
189.875
 31
0
 70
   32
 71
    5
 72
    0
  3
Standard
 53
0
210
0
220
0
230
1
100
AcDbAlignedDimension
 13
30
 23
185
 33
0
 14
50
 24
185
 34
0
100
AcDbRotatedDimension
  0
DIMENSION
  5
18A
100
AcDbEntity
  8
Messure+
  6
ByLayer
 62
  256
370
   -1
100
AcDbDimension
  2
*D3
 10
55
 20
208
 30
0
 11
40
 21
209.875
 31
0
 70
   32
 71
    5
 72
    0
  3
Standard
 53
0
210
0
220
0
230
1
100
AcDbAlignedDimension
 13
25
 23
203
 33
0
 14
55
 24
203
 34
0
100
AcDbRotatedDimension
  0
DIMENSION
  5
18B
100
AcDbEntity
  8
Messure+
  6
ByLayer
 62
  256
370
   -1
100
AcDbDimension
  2
*D4
 10
20
 20
203
 30
0
 11
18.125
 21
198
 31
0
 70
   32
 71
    5
 72
    0
  3
Standard
 53
0
210
0
220
0
230
1
100
AcDbAlignedDimension
 13
25
 23
193
 33
0
 14
25
 24
203
 34
0
 50
90
100
AcDbRotatedDimension
  0
DIMENSION
  5
18C
100
AcDbEntity
  8
Messure+
  6
ByLayer
 62
  256
370
   -1
100
AcDbDimension
  2
*D5
 10
15
 20
4.041200967613845e-15
 30
0
 11
13.125
 21
75
 31
0
 70
   32
 71
    5
 72
    0
  3
Standard
 53
0
210
0
220
0
230
1
100
AcDbAlignedDimension
 13
29
 23
150
 33
0
 14
48
 24
0
 34
0
 50
90
100
AcDbRotatedDimension
  0
DIMENSION
  5
18D
100
AcDbEntity
  8
Messure+
  6
ByLayer
 62
  256
370
   -1
100
AcDbDimension
  2
*D6
 10
21
 20
130
 30
0
 11
19.125
 21
140
 31
0
 70
   32
 71
    5
 72
    0
  3
Standard
 53
0
210
0
220
0
230
1
100
AcDbAlignedDimension
 13
35
 23
150
 33
0
 14
38
 24
130
 34
0
 50
90
100
AcDbRotatedDimension
  0
DIMENSION
  5
18E
100
AcDbEntity
  8
Messure+
  6
ByLayer
 62
  256
370
   -1
100
AcDbDimension
  2
*D7
 10
56
 20
80
 30
0
 11
54.125
 21
102.5
 31
0
 70
   32
 71
    5
 72
    0
  3
Standard
 53
0
210
0
220
0
230
1
100
AcDbAlignedDimension
 13
60
 23
125
 33
0
 14
60
 24
80
 34
0
 50
90
100
AcDbRotatedDimension
  0
DIMENSION
  5
18F
100
AcDbEntity
  8
Messure+
  6
ByLayer
 62
  256
370
   -1
100
AcDbDimension
  2
*D8
 10
80
 20
50
 30
0
 11
78.125
 21
60
 31
0
 70
   32
 71
    5
 72
    0
  3
Standard
 53
0
210
0
220
0
230
1
100
AcDbAlignedDimension
 13
80
 23
70
 33
0
 14
80
 24
50
 34
0
 50
90
100
AcDbRotatedDimension
  0
DIMENSION
  5
190
100
AcDbEntity
  8
Messure+
  6
ByLayer
 62
  256
370
   -1
100
AcDbDimension
  2
*D9
 10
50
 20
158
 30
0
 11
37.5
 21
159.875
 31
0
 70
   32
 71
    5
 72
    0
  3
Standard
 53
0
210
0
220
0
230
1
100
AcDbAlignedDimension
 13
25
 23
147
 33
0
 14
50
 24
147
 34
0
100
AcDbRotatedDimension
  0
DIMENSION
  5
191
100
AcDbEntity
  8
Messure+
  6
ByLayer
 62
  256
370
   -1
100
AcDbDimension
  2
*D10
 10
40
 20
153
 30
0
 11
37.5
 21
154.875
 31
0
 70
   32
 71
    5
 72
    0
  3
Standard
 53
0
210
0
220
0
230
1
100
AcDbAlignedDimension
 13
35
 23
150
 33
0
 14
40
 24
150
 34
0
100
AcDbRotatedDimension
  0
DIMENSION
  5
192
100
AcDbEntity
  8
Messure+
  6
ByLayer
 62
  256
370
   -1
100
AcDbDimension
  2
*D11
 10
56
 20
142
 30
0
 11
54.125
 21
143.5
 31
0
 70
   32
 71
    5
 72
    0
  3
Standard
 53
0
210
0
220
0
230
1
100
AcDbAlignedDimension
 13
50
 23
145
 33
0
 14
50
 24
142
 34
0
 50
90
100
AcDbRotatedDimension
  0
DIMENSION
  5
193
100
AcDbEntity
  8
Messure+
  6
ByLayer
 62
  256
370
   -1
100
AcDbDimension
  2
*D12
 10
87
 20
130
 30
0
 11
85.5
 21
131.875
 31
0
 70
   32
 71
    5
 72
    0
  3
Standard
 53
0
210
0
220
0
230
1
100
AcDbAlignedDimension
 13
84
 23
125
 33
0
 14
87
 24
125
 34
0
100
AcDbRotatedDimension
  0
DIMENSION
  5
194
100
AcDbEntity
  8
Messure+
  6
ByLayer
 62
  256
370
   -1
100
AcDbDimension
  2
*D13
 10
145
 20
75
 30
0
 11
100
 21
76.875
 31
0
 70
   32
 71
    5
 72
    0
  3
Standard
 53
0
210
0
220
0
230
1
100
AcDbAlignedDimension
 13
55
 23
70
 33
0
 14
145
 24
70
 34
0
100
AcDbRotatedDimension
  0
DIMENSION
  5
195
100
AcDbEntity
  8
Messure+
  6
ByLayer
 62
  256
370
   -1
100
AcDbDimension
  2
*D14
 10
98
 20
60
 30
0
 11
100
 21
61.875
 31
0
 70
   35
 71
    5
 72
    0
  3
Standard
 53
0
210
0
220
0
230
1
100
AcDbDiametricDimension
 15
102
 25
60
 35
0
 40
0
  0
DIMENSION
  5
196
100
AcDbEntity
  8
Messure+
  6
ByLayer
 62
  256
370
   -1
100
AcDbDimension
  2
*D15
 10
40
 20
88
 30
0
 11
38.125
 21
90
 31
0
 70
   35
 71
    5
 72
    0
  3
Standard
 53
0
210
0
220
0
230
1
100
AcDbDiametricDimension
 15
40
 25
92
 35
0
 40
0
  0
DIMENSION
  5
197
100
AcDbEntity
  8
Messure+
  6
ByLayer
 62
  256
370
   -1
100
AcDbDimension
  2
*D16
 10
40
 20
113
 30
0
 11
38.125
 21
115
 31
0
 70
   35
 71
    5
 72
    0
  3
Standard
 53
0
210
0
220
0
230
1
100
AcDbDiametricDimension
 15
40
 25
117
 35
0
 40
0
  0
DIMENSION
  5
198
100
AcDbEntity
  8
Messure+
  6
ByLayer
 62
  256
370
   -1
100
AcDbDimension
  2
*D17
 10
63
 20
18
 30
0
 11
65
 21
19.875
 31
0
 70
   35
 71
    5
 72
    0
  3
Standard
 53
0
210
0
220
0
230
1
100
AcDbDiametricDimension
 15
67
 25
18
 35
0
 40
0
  0
DIMENSION
  5
199
100
AcDbEntity
  8
Messure+
  6
ByLayer
 62
  256
370
   -1
100
AcDbDimension
  2
*D18
 10
137
 20
18
 30
0
 11
135
 21
19.875
 31
0
 70
   35
 71
    5
 72
    0
  3
Standard
 53
0
210
0
220
0
230
1
100
AcDbDiametricDimension
 15
133
 25
18
 35
0
 40
0
  0
DIMENSION
  5
19A
100
AcDbEntity
  8
Messure+
  6
ByLayer
 62
  256
370
   -1
100
AcDbDimension
  2
*D19
 10
44
 20
181
 30
0
 11
40
 21
182.875
 31
0
 70
   32
 71
    5
 72
    0
  3
Standard
 53
0
210
0
220
0
230
1
100
AcDbAlignedDimension
 13
36
 23
173
 33
0
 14
44
 24
173
 34
0
100
AcDbRotatedDimension
  0
DIMENSION
  5
19B
100
AcDbEntity
  8
Messure+
  6
ByLayer
 62
  256
370
   -1
100
AcDbDimension
  2
*D20
 10
106.5
 20
-3
 30
0
 11
100
 21
-1.125
 31
0
 70
   32
 71
    5
 72
    0
  3
Standard
 53
0
210
0
220
0
230
1
100
AcDbAlignedDimension
 13
93.50000000000001
 23
8.326672684688674e-17
 33
0
 14
106.5
 24
8.326672684688674e-17
 34
0
100
AcDbRotatedDimension
  0
DIMENSION
  5
19C
100
AcDbEntity
  8
Messure+
  6
ByLayer
 62
  256
370
   -1
100
AcDbDimension
  2
*D21
 10
90
 20
13
 30
0
 11
88.125
 21
6.5
 31
0
 70
   32
 71
    5
 72
    0
  3
Standard
 53
0
210
0
220
0
230
1
100
AcDbAlignedDimension
 13
93
 23
0
 33
0
 14
95
 24
13
 34
0
 50
90
100
AcDbRotatedDimension
  0
ENDSEC
  0
SECTION
  2
OBJECTS
  0
DICTIONARY
  5
C
330
0
100
AcDbDictionary
281
    1
  3
ACAD_GROUP
350
D
  0
DICTIONARY
  5
D
330
C
100
AcDbDictionary
281
    1
  0
PLOTSETTINGS
  5
19D
100
AcDbPlotSettings
  6
1x1
 40
3.39
 41
5.04
 42
3.39
 43
2.96
  0
ENDSEC
  0
EOF
